<svg xmlns="http://www.w3.org/2000/svg" xmlns:xlink="http://www.w3.org/1999/xlink" width="694" zoomAndPan="magnify" viewBox="0 0 520.5 443.249995" height="591" preserveAspectRatio="xMidYMid meet" version="1.0"><defs><g/><clipPath id="1338ba773a"><path d="M 193.617188 0 L 326 0 L 326 118 L 193.617188 118 Z M 193.617188 0 " clip-rule="nonzero"/></clipPath><clipPath id="29c1be99e2"><path d="M 196.191406 85.730469 L 252.117188 85.730469 L 252.117188 115.796875 L 196.191406 115.796875 Z M 196.191406 85.730469 " clip-rule="nonzero"/></clipPath><clipPath id="2218e1261e"><path d="M 247 59.019531 L 291.785156 59.019531 L 291.785156 99 L 247 99 Z M 247 59.019531 " clip-rule="nonzero"/></clipPath></defs><g clip-path="url(#1338ba773a)"><path fill="#74cccc" d="M 209.316406 24.3125 C 200.679688 24.3125 193.617188 31.378906 193.617188 40.015625 L 193.617188 102.273438 C 193.617188 110.90625 200.679688 117.972656 209.316406 117.972656 Z M 310.417969 117.96875 C 319.050781 117.96875 326.121094 110.90625 326.121094 102.273438 L 326.121094 40.015625 C 326.121094 31.378906 319.050781 24.3125 310.417969 24.3125 Z M 241.644531 10.617188 C 241.644531 9.507812 242.582031 8.570312 243.699219 8.570312 L 276.042969 8.570312 C 277.152344 8.570312 278.097656 9.507812 278.097656 10.617188 L 278.097656 24.3125 L 241.644531 24.3125 Z M 219.675781 117.96875 L 300.0625 117.96875 L 300.0625 24.3125 L 286.589844 24.3125 L 286.589844 10.617188 C 286.589844 4.820312 281.839844 0.0703125 276.042969 0.0703125 L 243.699219 0.0703125 C 237.894531 0.0703125 233.144531 4.820312 233.144531 10.617188 L 233.144531 24.3125 L 219.675781 24.3125 Z M 219.675781 117.96875 " fill-opacity="1" fill-rule="nonzero"/></g><path fill="#ffffff" d="M 252.800781 93.195312 L 252.800781 93.183594 L 252.796875 93.183594 Z M 252.800781 93.195312 " fill-opacity="1" fill-rule="nonzero"/><path fill="#ffffff" d="M 220.097656 100.808594 L 220.101562 100.808594 C 220.097656 100.800781 220.089844 100.789062 220.085938 100.78125 C 220.089844 100.789062 220.09375 100.800781 220.097656 100.808594 " fill-opacity="1" fill-rule="nonzero"/><g clip-path="url(#29c1be99e2)"><path fill="#ffffff" d="M 170.734375 110.542969 C 171.027344 111.261719 171.453125 111.929688 171.96875 112.5 C 172.488281 113.066406 173.085938 113.535156 173.707031 113.914062 C 174.957031 114.667969 176.28125 115.09375 177.585938 115.375 C 178.894531 115.652344 180.195312 115.785156 181.484375 115.839844 C 182.773438 115.894531 184.046875 115.859375 185.3125 115.78125 C 187.839844 115.625 190.324219 115.265625 192.773438 114.785156 C 193.996094 114.546875 195.210938 114.277344 196.417969 113.980469 C 197.625 113.683594 198.824219 113.359375 200.015625 113.011719 C 201.871094 112.476562 203.710938 111.882812 205.53125 111.25 C 206.710938 110.84375 207.886719 110.414062 209.050781 109.976562 C 210.699219 109.355469 212.335938 108.707031 213.960938 108.046875 C 216.679688 106.933594 219.375 105.773438 222.058594 104.589844 C 223.148438 104.109375 224.230469 103.625 225.316406 103.136719 C 226.039062 102.816406 226.757812 102.492188 227.476562 102.167969 C 231.949219 100.144531 236.394531 98.070312 240.8125 95.941406 C 243.765625 94.515625 246.734375 93.070312 249.667969 91.601562 C 250.207031 91.335938 251.085938 90.886719 251.671875 90.589844 C 252.0625 90.390625 252.136719 89.847656 251.796875 89.570312 C 251.777344 89.554688 251.757812 89.539062 251.738281 89.53125 C 251.21875 89.210938 250.566406 89.203125 250.035156 89.507812 C 249.726562 89.683594 249.394531 89.875 249.160156 90.011719 C 246.238281 91.703125 243.28125 93.328125 240.28125 94.878906 C 235.9375 97.121094 231.519531 99.21875 227.019531 101.117188 C 226.703125 101.253906 226.386719 101.382812 226.070312 101.511719 C 225.910156 101.582031 225.75 101.648438 225.589844 101.710938 C 225.519531 101.742188 225.445312 101.769531 225.375 101.800781 C 225.265625 101.84375 225.15625 101.890625 225.046875 101.933594 C 224.941406 101.976562 224.835938 102.019531 224.726562 102.0625 C 224.644531 102.097656 224.566406 102.128906 224.484375 102.160156 C 224.292969 102.238281 224.097656 102.316406 223.90625 102.394531 C 223.902344 102.394531 223.902344 102.398438 223.898438 102.398438 C 223.621094 102.507812 223.34375 102.617188 223.066406 102.726562 C 222.789062 102.832031 222.503906 102.917969 222.226562 103.027344 C 221.945312 103.132812 221.667969 103.238281 221.382812 103.324219 L 221.375 103.324219 C 218.722656 104.425781 216 105.296875 213.277344 106.171875 C 211.363281 106.789062 209.429688 107.347656 207.507812 107.929688 L 207.503906 107.929688 C 206.300781 108.296875 205.097656 108.660156 203.867188 108.933594 L 203.851562 108.9375 C 202.335938 109.398438 200.785156 109.757812 199.25 110.128906 C 198.660156 110.269531 198.074219 110.417969 197.484375 110.550781 C 196.894531 110.683594 196.308594 110.820312 195.71875 110.945312 C 194.539062 111.195312 193.363281 111.441406 192.179688 111.65625 C 189.816406 112.085938 187.449219 112.441406 185.09375 112.625 C 183.914062 112.714844 182.742188 112.753906 181.582031 112.734375 C 180.421875 112.710938 179.277344 112.617188 178.1875 112.414062 C 177.097656 112.207031 176.050781 111.894531 175.183594 111.40625 C 174.320312 110.917969 173.660156 110.269531 173.28125 109.453125 C 172.898438 108.636719 172.808594 107.632812 172.933594 106.582031 C 173.058594 105.527344 173.394531 104.441406 173.820312 103.378906 C 174.253906 102.308594 174.789062 101.261719 175.382812 100.234375 C 175.972656 99.207031 176.625 98.203125 177.308594 97.214844 C 178.679688 95.242188 180.195312 93.339844 181.769531 91.484375 C 183.34375 89.628906 184.984375 87.816406 186.65625 86.027344 L 186.414062 85.765625 C 184.496094 87.300781 182.640625 88.921875 180.859375 90.628906 C 179.078125 92.335938 177.371094 94.136719 175.789062 96.066406 C 174.21875 98.003906 172.746094 100.0625 171.621094 102.40625 C 171.066406 103.578125 170.601562 104.832031 170.359375 106.199219 C 170.242188 106.882812 170.183594 107.597656 170.234375 108.335938 C 170.285156 109.070312 170.441406 109.824219 170.734375 110.542969 " fill-opacity="1" fill-rule="nonzero"/></g><path fill="#ffffff" d="M 282.929688 99.875 C 282.929688 99.878906 282.929688 99.882812 282.929688 99.882812 C 282.933594 99.886719 282.933594 99.890625 282.933594 99.894531 L 282.96875 99.871094 C 282.957031 99.871094 282.941406 99.875 282.929688 99.875 " fill-opacity="1" fill-rule="nonzero"/><g clip-path="url(#2218e1261e)"><path fill="#ffffff" d="M 248.003906 83.855469 L 250.917969 85.660156 L 251.703125 86.148438 C 251.703125 86.148438 253.621094 87.335938 253.636719 87.34375 C 254.078125 87.617188 254.480469 87.96875 254.726562 88.429688 C 254.945312 88.839844 255.007812 89.296875 255.097656 89.746094 C 255.234375 90.4375 255.375 91.128906 255.511719 91.820312 L 255.515625 91.824219 L 256.296875 95.726562 C 256.402344 96.25 256.816406 96.445312 257.222656 96.160156 C 257.628906 95.878906 257.976562 95.207031 257.988281 94.671875 L 258.085938 90.484375 L 258.082031 90.480469 L 258.140625 87.667969 L 262.214844 85.042969 L 262.511719 84.851562 L 262.515625 84.851562 L 274.105469 77.382812 L 274.207031 77.875 L 274.207031 77.878906 L 274.210938 77.886719 L 274.253906 77.878906 L 274.988281 80.78125 L 274.992188 80.796875 L 278.855469 98.296875 C 278.941406 98.664062 279.132812 98.90625 279.40625 98.824219 L 279.421875 98.820312 C 279.523438 98.789062 279.640625 98.738281 279.753906 98.660156 L 281.582031 97.378906 C 282.007812 97.082031 282.347656 96.425781 282.328125 95.90625 L 282.175781 91.007812 C 282.304688 90.984375 282.394531 90.882812 282.511719 90.800781 L 283.3125 90.242188 L 283.53125 90.089844 C 283.957031 89.792969 284.148438 89.292969 283.851562 88.867188 L 283.636719 88.558594 C 283.542969 88.421875 283.40625 88.308594 283.253906 88.230469 C 282.929688 88.058594 282.523438 88.027344 282.234375 88.230469 L 282.050781 88.359375 L 281.949219 84.089844 C 282.078125 84.066406 282.246094 84.074219 282.359375 83.996094 L 282.78125 83.703125 L 283.351562 83.304688 C 283.773438 83.007812 283.882812 82.402344 283.585938 81.976562 L 283.371094 81.667969 C 283.179688 81.390625 282.816406 81.199219 282.472656 81.179688 C 282.289062 81.167969 282.109375 81.210938 281.960938 81.3125 L 281.804688 81.417969 L 281.667969 76.601562 L 281.664062 76.386719 L 281.566406 73.007812 L 281.550781 72.53125 L 287.410156 68.855469 L 287.457031 68.828125 C 288.796875 67.960938 290.949219 65.605469 291.597656 63.871094 C 291.820312 63.277344 291.867188 62.753906 291.644531 62.390625 C 291.433594 62.050781 291.007812 61.882812 290.457031 61.835938 C 288.695312 61.6875 285.65625 62.789062 284.285156 63.679688 C 284.257812 63.695312 282.203125 65.234375 279.207031 67.496094 C 279.105469 67.570312 279.011719 67.644531 278.910156 67.71875 C 278.757812 67.832031 278.601562 67.949219 278.445312 68.066406 L 278.152344 67.949219 L 277.957031 67.867188 L 275.265625 66.769531 L 270.136719 64.679688 L 270.289062 64.574219 C 270.714844 64.277344 270.84375 63.695312 270.546875 63.273438 L 270.332031 62.960938 C 270.035156 62.535156 269.511719 62.550781 269.085938 62.84375 L 268.09375 63.535156 C 267.980469 63.617188 267.835938 63.644531 267.769531 63.757812 L 263.710938 62.050781 L 263.894531 61.925781 C 264.320312 61.628906 264.46875 61.066406 264.171875 60.640625 L 263.953125 60.332031 C 263.660156 59.90625 263.023438 59.769531 262.597656 60.066406 L 261.574219 60.777344 C 261.460938 60.855469 261.375 60.960938 261.308594 61.074219 L 256.757812 59.226562 C 256.277344 59.03125 255.511719 59.082031 255.089844 59.378906 L 253.261719 60.652344 C 252.835938 60.945312 252.867188 61.453125 253.304688 61.738281 L 267.765625 71.097656 L 270.679688 72.984375 L 271.359375 73.425781 C 271.136719 73.59375 270.914062 73.757812 270.695312 73.925781 C 264.617188 78.507812 258.335938 83.242188 256.164062 84.882812 L 253.628906 84.015625 L 250.761719 83.035156 L 249.578125 82.628906 C 249.074219 82.457031 248.328125 82.546875 247.921875 82.828125 C 247.511719 83.113281 247.550781 83.574219 248.003906 83.855469 " fill-opacity="1" fill-rule="nonzero"/></g><g fill="#ffffff" fill-opacity="1"><g transform="translate(41.609306, 352.666293)"><g><path d="M 83.921875 -80.59375 C 83.921875 -83.707031 85.476562 -85.265625 88.59375 -85.265625 L 94.703125 -85.265625 C 97.804688 -85.265625 99.359375 -83.707031 99.359375 -80.59375 L 99.359375 13.984375 C 99.359375 17.097656 97.804688 18.65625 94.703125 18.65625 L 88.59375 18.65625 C 85.476562 18.65625 83.921875 17.097656 83.921875 13.984375 L 83.921875 -32.1875 L 69.28125 -32.1875 C 66.164062 -32.1875 64.609375 -33.742188 64.609375 -36.859375 L 64.609375 -42.078125 C 64.609375 -45.179688 66.164062 -46.734375 69.28125 -46.734375 L 83.921875 -46.734375 Z M 11.875 -68.71875 C 8.769531 -68.71875 7.21875 -70.269531 7.21875 -73.375 L 7.21875 -78.375 C 7.21875 -81.488281 8.769531 -83.046875 11.875 -83.046875 L 55.625 -83.046875 C 58.726562 -83.046875 60.28125 -81.488281 60.28125 -78.375 L 60.28125 -36.96875 C 60.28125 -26.90625 58.519531 -18.503906 55 -11.765625 C 51.488281 -5.035156 46.195312 0.34375 39.125 4.375 C 32.0625 8.414062 23.128906 11.472656 12.328125 13.546875 C 8.921875 14.140625 7.21875 12.734375 7.21875 9.328125 L 7.21875 2.328125 C 7.21875 -0.484375 8.660156 -2.148438 11.546875 -2.671875 C 22.796875 -5.035156 30.953125 -8.640625 36.015625 -13.484375 C 41.085938 -18.335938 43.957031 -24.648438 44.625 -32.421875 L 11.875 -32.421875 C 8.769531 -32.421875 7.21875 -33.972656 7.21875 -37.078125 L 7.21875 -42.078125 C 7.21875 -45.179688 8.769531 -46.734375 11.875 -46.734375 L 44.84375 -46.734375 L 44.84375 -68.71875 Z M 11.875 -68.71875 "/></g></g></g><g fill="#ffffff" fill-opacity="1"><g transform="translate(148.146097, 352.666293)"><g><path d="M 64.28125 -26.09375 C 61.164062 -26.09375 59.609375 -27.644531 59.609375 -30.75 L 59.609375 -55.734375 L 43.296875 -55.734375 C 40.191406 -55.734375 38.640625 -57.285156 38.640625 -60.390625 L 38.640625 -64.5 C 38.640625 -67.601562 40.191406 -69.15625 43.296875 -69.15625 L 59.609375 -69.15625 L 59.609375 -80.59375 C 59.609375 -83.707031 61.164062 -85.265625 64.28125 -85.265625 L 69.046875 -85.265625 C 72.160156 -85.265625 73.71875 -83.707031 73.71875 -80.59375 L 73.71875 -30.75 C 73.71875 -27.644531 72.160156 -26.09375 69.046875 -26.09375 Z M 91.25 -26.09375 C 88.144531 -26.09375 86.59375 -27.644531 86.59375 -30.75 L 86.59375 -80.59375 C 86.59375 -83.707031 88.144531 -85.265625 91.25 -85.265625 L 95.921875 -85.265625 C 99.023438 -85.265625 100.578125 -83.707031 100.578125 -80.59375 L 100.578125 -30.75 C 100.578125 -27.644531 99.023438 -26.09375 95.921875 -26.09375 Z M 10.546875 -30.53125 C 7.441406 -30.53125 5.890625 -32.082031 5.890625 -35.1875 L 5.890625 -78.375 C 5.890625 -81.488281 7.441406 -83.046875 10.546875 -83.046875 L 15.546875 -83.046875 C 18.648438 -83.046875 20.203125 -81.488281 20.203125 -78.375 L 20.203125 -44.1875 L 47.84375 -44.1875 C 50.957031 -44.1875 52.515625 -42.628906 52.515625 -39.515625 L 52.515625 -35.1875 C 52.515625 -32.082031 50.957031 -30.53125 47.84375 -30.53125 Z M 89.8125 19.765625 C 86.707031 19.765625 85.15625 18.207031 85.15625 15.09375 L 85.15625 -7 L 15.3125 -7 C 12.207031 -7 10.65625 -8.550781 10.65625 -11.65625 L 10.65625 -16.09375 C 10.65625 -19.207031 12.207031 -20.765625 15.3125 -20.765625 L 95.921875 -20.765625 C 99.023438 -20.765625 100.578125 -19.207031 100.578125 -16.09375 L 100.578125 15.09375 C 100.578125 18.207031 99.023438 19.765625 95.921875 19.765625 Z M 89.8125 19.765625 "/></g></g></g><g fill="#ffffff" fill-opacity="1"><g transform="translate(254.682889, 352.666293)"><g><path d="M 13.4375 -16.546875 C 10.320312 -16.546875 8.765625 -18.097656 8.765625 -21.203125 L 8.765625 -78.703125 C 8.765625 -81.816406 10.320312 -83.375 13.4375 -83.375 L 93.03125 -83.375 C 96.132812 -83.375 97.6875 -81.816406 97.6875 -78.703125 L 97.6875 -74.71875 C 97.6875 -71.601562 96.132812 -70.046875 93.03125 -70.046875 L 24.203125 -70.046875 L 24.203125 -56.84375 L 91.921875 -56.84375 C 95.023438 -56.84375 96.578125 -55.285156 96.578125 -52.171875 L 96.578125 -48.0625 C 96.578125 -44.957031 95.023438 -43.40625 91.921875 -43.40625 L 24.203125 -43.40625 L 24.203125 -29.96875 L 93.46875 -29.96875 C 96.582031 -29.96875 98.140625 -28.414062 98.140625 -25.3125 L 98.140625 -21.203125 C 98.140625 -18.097656 96.582031 -16.546875 93.46875 -16.546875 Z M 7 13.65625 C 3.882812 13.65625 2.328125 12.101562 2.328125 9 L 2.328125 4.890625 C 2.328125 1.773438 3.882812 0.21875 7 0.21875 L 99.46875 0.21875 C 102.570312 0.21875 104.125 1.773438 104.125 4.890625 L 104.125 9 C 104.125 12.101562 102.570312 13.65625 99.46875 13.65625 Z M 7 13.65625 "/></g></g></g><g fill="#ffffff" fill-opacity="1"><g transform="translate(361.219681, 352.666293)"><g><path d="M 88.59375 -29.859375 C 85.476562 -29.859375 83.921875 -31.414062 83.921875 -34.53125 L 83.921875 -80.59375 C 83.921875 -83.707031 85.476562 -85.265625 88.59375 -85.265625 L 94.703125 -85.265625 C 97.804688 -85.265625 99.359375 -83.707031 99.359375 -80.59375 L 99.359375 -34.53125 C 99.359375 -31.414062 97.804688 -29.859375 94.703125 -29.859375 Z M 11.875 -31.96875 C 8.769531 -31.96875 7.21875 -33.523438 7.21875 -36.640625 L 7.21875 -59.171875 C 7.21875 -62.273438 8.769531 -63.828125 11.875 -63.828125 L 51.734375 -63.828125 L 51.734375 -71.265625 L 11.875 -71.265625 C 8.769531 -71.265625 7.21875 -72.820312 7.21875 -75.9375 L 7.21875 -78.375 C 7.21875 -81.488281 8.769531 -83.046875 11.875 -83.046875 L 61.953125 -83.046875 C 65.054688 -83.046875 66.609375 -81.488281 66.609375 -78.375 L 66.609375 -56.734375 C 66.609375 -53.617188 65.054688 -52.0625 61.953125 -52.0625 L 22.09375 -52.0625 L 22.09375 -43.734375 L 69.390625 -43.734375 C 72.492188 -43.734375 74.046875 -42.179688 74.046875 -39.078125 L 74.046875 -36.640625 C 74.046875 -33.523438 72.492188 -31.96875 69.390625 -31.96875 Z M 17.421875 18.65625 C 14.316406 18.65625 12.765625 17.097656 12.765625 13.984375 L 12.765625 -20.875 C 12.765625 -23.976562 14.316406 -25.53125 17.421875 -25.53125 L 23.53125 -25.53125 C 26.644531 -25.53125 28.203125 -23.976562 28.203125 -20.875 L 28.203125 -16.09375 L 83.921875 -16.09375 L 83.921875 -20.875 C 83.921875 -23.976562 85.476562 -25.53125 88.59375 -25.53125 L 94.703125 -25.53125 C 97.804688 -25.53125 99.359375 -23.976562 99.359375 -20.875 L 99.359375 13.984375 C 99.359375 17.097656 97.804688 18.65625 94.703125 18.65625 Z M 28.203125 5.546875 L 83.921875 5.546875 L 83.921875 -3.109375 L 28.203125 -3.109375 Z M 28.203125 5.546875 "/></g></g></g><g fill="#000000" fill-opacity="1"><g transform="translate(41.609306, 187.185618)"><g><path d="M 10.75 -29.59375 C 11.789062 -29.59375 12.3125 -29.070312 12.3125 -28.03125 C 12.3125 -27.3125 12.300781 -26.613281 12.28125 -25.9375 C 12.269531 -25.257812 12.253906 -24.597656 12.234375 -23.953125 L 16.796875 -23.953125 C 17.835938 -23.953125 18.359375 -23.429688 18.359375 -22.390625 L 18.359375 -20.6875 C 18.359375 -19.644531 17.835938 -19.125 16.796875 -19.125 L 12.09375 -19.125 C 11.988281 -17.300781 11.851562 -15.613281 11.6875 -14.0625 C 11.53125 -12.519531 11.34375 -11.09375 11.125 -9.78125 C 12.632812 -6 14.6875 -3.296875 17.28125 -1.671875 C 18 -1.203125 18.359375 -0.570312 18.359375 0.21875 L 18.359375 2.671875 C 18.359375 3.265625 18.179688 3.675781 17.828125 3.90625 C 17.484375 4.144531 17.039062 4.113281 16.5 3.8125 C 15.0625 3 13.757812 1.96875 12.59375 0.71875 C 11.4375 -0.53125 10.390625 -1.984375 9.453125 -3.640625 C 8.765625 -1.984375 7.925781 -0.582031 6.9375 0.5625 C 5.945312 1.71875 4.796875 2.726562 3.484375 3.59375 C 2.960938 3.9375 2.515625 4 2.140625 3.78125 C 1.773438 3.5625 1.59375 3.140625 1.59375 2.515625 L 1.59375 0.140625 C 1.59375 -0.597656 1.898438 -1.226562 2.515625 -1.75 C 3.734375 -2.8125 4.691406 -4.113281 5.390625 -5.65625 C 6.097656 -7.195312 6.617188 -9.070312 6.953125 -11.28125 C 7.285156 -13.5 7.5 -16.113281 7.59375 -19.125 L 3.15625 -19.125 C 2.113281 -19.125 1.59375 -19.644531 1.59375 -20.6875 L 1.59375 -22.390625 C 1.59375 -23.429688 2.113281 -23.953125 3.15625 -23.953125 L 7.71875 -23.953125 C 7.738281 -24.597656 7.75 -25.257812 7.75 -25.9375 C 7.75 -26.613281 7.75 -27.3125 7.75 -28.03125 C 7.75 -29.070312 8.269531 -29.59375 9.3125 -29.59375 Z M 29.296875 -26.921875 C 29.296875 -27.953125 29.8125 -28.46875 30.84375 -28.46875 L 32.40625 -28.46875 C 33.445312 -28.46875 33.96875 -27.953125 33.96875 -26.921875 L 33.96875 4.671875 C 33.96875 5.710938 33.445312 6.234375 32.40625 6.234375 L 30.84375 6.234375 C 29.8125 6.234375 29.296875 5.710938 29.296875 4.671875 L 29.296875 -9.671875 L 25.109375 -9.671875 L 25.109375 4.671875 C 25.109375 5.710938 24.585938 6.234375 23.546875 6.234375 L 21.984375 6.234375 C 20.953125 6.234375 20.4375 5.710938 20.4375 4.671875 L 20.4375 -26.921875 C 20.4375 -27.953125 20.953125 -28.46875 21.984375 -28.46875 L 23.546875 -28.46875 C 24.585938 -28.46875 25.109375 -27.953125 25.109375 -26.921875 L 25.109375 -14.5 L 29.296875 -14.5 Z M 29.296875 -26.921875 "/></g></g></g><g fill="#000000" fill-opacity="1"><g transform="translate(77.200403, 187.185618)"><g><path d="M 29.59375 -8.125 C 28.550781 -8.125 28.03125 -8.640625 28.03125 -9.671875 L 28.03125 -26.921875 C 28.03125 -27.953125 28.550781 -28.46875 29.59375 -28.46875 L 31.625 -28.46875 C 32.664062 -28.46875 33.1875 -27.953125 33.1875 -26.921875 L 33.1875 -9.671875 C 33.1875 -8.640625 32.664062 -8.125 31.625 -8.125 Z M 3.96875 -9.453125 C 2.925781 -9.453125 2.40625 -9.972656 2.40625 -11.015625 L 2.40625 -26.171875 C 2.40625 -27.210938 2.925781 -27.734375 3.96875 -27.734375 L 22.4375 -27.734375 C 23.46875 -27.734375 23.984375 -27.210938 23.984375 -26.171875 L 23.984375 -25.140625 C 23.984375 -24.097656 23.46875 -23.578125 22.4375 -23.578125 L 7.375 -23.578125 L 7.375 -20.796875 L 21.5 -20.796875 C 22.539062 -20.796875 23.0625 -20.28125 23.0625 -19.25 L 23.0625 -18.203125 C 23.0625 -17.160156 22.539062 -16.640625 21.5 -16.640625 L 7.375 -16.640625 L 7.375 -13.609375 L 22.953125 -13.609375 C 23.992188 -13.609375 24.515625 -13.085938 24.515625 -12.046875 L 24.515625 -11.015625 C 24.515625 -9.972656 23.992188 -9.453125 22.953125 -9.453125 Z M 12.71875 6.421875 C 9.726562 6.421875 7.535156 5.910156 6.140625 4.890625 C 4.742188 3.878906 4.046875 2.410156 4.046875 0.484375 L 4.046875 -0.890625 C 4.046875 -2.796875 4.742188 -4.257812 6.140625 -5.28125 C 7.535156 -6.3125 9.726562 -6.828125 12.71875 -6.828125 L 24.875 -6.828125 C 27.84375 -6.828125 30.03125 -6.3125 31.4375 -5.28125 C 32.851562 -4.257812 33.5625 -2.796875 33.5625 -0.890625 L 33.5625 0.484375 C 33.5625 2.410156 32.851562 3.878906 31.4375 4.890625 C 30.03125 5.910156 27.84375 6.421875 24.875 6.421875 Z M 13.90625 1.921875 L 23.6875 1.921875 C 25.414062 1.921875 26.632812 1.757812 27.34375 1.4375 C 28.050781 1.125 28.40625 0.632812 28.40625 -0.03125 L 28.40625 -0.375 C 28.40625 -1.007812 28.050781 -1.492188 27.34375 -1.828125 C 26.632812 -2.160156 25.414062 -2.328125 23.6875 -2.328125 L 13.90625 -2.328125 C 12.175781 -2.328125 10.957031 -2.164062 10.25 -1.84375 C 9.550781 -1.53125 9.203125 -1.039062 9.203125 -0.375 L 9.203125 -0.03125 C 9.203125 0.632812 9.550781 1.125 10.25 1.4375 C 10.957031 1.757812 12.175781 1.921875 13.90625 1.921875 Z M 13.90625 1.921875 "/></g></g></g><g fill="#000000" fill-opacity="1"><g transform="translate(112.791501, 187.185618)"><g><path d="M 27.515625 6.234375 C 26.472656 6.234375 25.953125 5.710938 25.953125 4.671875 L 25.953125 -26.921875 C 25.953125 -27.953125 26.472656 -28.46875 27.515625 -28.46875 L 29.546875 -28.46875 C 30.585938 -28.46875 31.109375 -27.953125 31.109375 -26.921875 L 31.109375 -14.984375 L 34.03125 -14.984375 C 35.070312 -14.984375 35.59375 -14.460938 35.59375 -13.421875 L 35.59375 -11.71875 C 35.59375 -10.675781 35.070312 -10.15625 34.03125 -10.15625 L 31.109375 -10.15625 L 31.109375 4.671875 C 31.109375 5.710938 30.585938 6.234375 29.546875 6.234375 Z M 18.25 -5.40625 C 17.15625 -5.40625 16.632812 -5.925781 16.6875 -6.96875 L 17.0625 -22.953125 L 3.046875 -22.953125 C 2.003906 -22.953125 1.484375 -23.472656 1.484375 -24.515625 L 1.484375 -26.171875 C 1.484375 -27.210938 2.003906 -27.734375 3.046875 -27.734375 L 20.25 -27.734375 C 21.332031 -27.734375 21.847656 -27.210938 21.796875 -26.171875 L 21.359375 -6.9375 C 21.304688 -5.914062 20.773438 -5.40625 19.765625 -5.40625 Z M 1.75 4.5625 C 0.707031 4.5625 0.1875 4.039062 0.1875 3 L 0.1875 1.296875 C 0.1875 0.253906 0.707031 -0.265625 1.75 -0.265625 L 7.046875 -0.265625 L 7.046875 -12.265625 C 7.046875 -13.304688 7.566406 -13.828125 8.609375 -13.828125 L 10.453125 -13.828125 C 11.492188 -13.828125 12.015625 -13.304688 12.015625 -12.265625 L 12.015625 -0.265625 L 22.328125 -0.265625 C 23.359375 -0.265625 23.875 0.253906 23.875 1.296875 L 23.875 3 C 23.875 4.039062 23.359375 4.5625 22.328125 4.5625 Z M 1.75 4.5625 "/></g></g></g><g fill="#000000" fill-opacity="1"><g transform="translate(148.382598, 187.185618)"><g/></g></g><g fill="#000000" fill-opacity="1"><g transform="translate(159.504819, 187.185618)"><g><path d="M 30.359375 6.234375 C 29.328125 6.234375 28.8125 5.710938 28.8125 4.671875 L 28.8125 -26.921875 C 28.8125 -27.953125 29.328125 -28.46875 30.359375 -28.46875 L 32.40625 -28.46875 C 33.445312 -28.46875 33.96875 -27.953125 33.96875 -26.921875 L 33.96875 4.671875 C 33.96875 5.710938 33.445312 6.234375 32.40625 6.234375 Z M 13.34375 -11.046875 C 10.0625 -11.046875 7.597656 -11.742188 5.953125 -13.140625 C 4.304688 -14.535156 3.484375 -16.570312 3.484375 -19.25 L 3.484375 -19.796875 C 3.484375 -22.441406 4.304688 -24.46875 5.953125 -25.875 C 7.597656 -27.289062 10.0625 -28 13.34375 -28 L 14.90625 -28 C 18.21875 -28 20.695312 -27.289062 22.34375 -25.875 C 23.988281 -24.46875 24.8125 -22.441406 24.8125 -19.796875 L 24.8125 -19.25 C 24.8125 -16.570312 23.984375 -14.535156 22.328125 -13.140625 C 20.671875 -11.742188 18.195312 -11.046875 14.90625 -11.046875 Z M 13.640625 -15.609375 L 14.609375 -15.609375 C 16.285156 -15.609375 17.554688 -15.9375 18.421875 -16.59375 C 19.285156 -17.25 19.71875 -18.179688 19.71875 -19.390625 L 19.71875 -19.65625 C 19.71875 -20.863281 19.285156 -21.796875 18.421875 -22.453125 C 17.554688 -23.109375 16.285156 -23.4375 14.609375 -23.4375 L 13.640625 -23.4375 C 11.984375 -23.4375 10.71875 -23.109375 9.84375 -22.453125 C 8.96875 -21.796875 8.53125 -20.863281 8.53125 -19.65625 L 8.53125 -19.390625 C 8.53125 -18.179688 8.96875 -17.25 9.84375 -16.59375 C 10.71875 -15.9375 11.984375 -15.609375 13.640625 -15.609375 Z M 12.859375 6.234375 C 11.828125 6.234375 11.3125 5.710938 11.3125 4.671875 L 11.3125 -3.296875 L 3.1875 -3.296875 C 2.144531 -3.296875 1.625 -3.816406 1.625 -4.859375 L 1.625 -6.5625 C 1.625 -7.601562 2.144531 -8.125 3.1875 -8.125 L 25.171875 -8.125 C 26.210938 -8.125 26.734375 -7.601562 26.734375 -6.5625 L 26.734375 -4.859375 C 26.734375 -3.816406 26.210938 -3.296875 25.171875 -3.296875 L 16.46875 -3.296875 L 16.46875 4.671875 C 16.46875 5.710938 15.945312 6.234375 14.90625 6.234375 Z M 12.859375 6.234375 "/></g></g></g><g fill="#000000" fill-opacity="1"><g transform="translate(195.095917, 187.185618)"><g><path d="M 14.578125 -10.609375 C 15.835938 -8.453125 17.210938 -6.644531 18.703125 -5.1875 C 20.203125 -3.726562 21.890625 -2.53125 23.765625 -1.59375 C 24.535156 -1.195312 24.921875 -0.578125 24.921875 0.265625 L 24.921875 2.78125 C 24.921875 3.351562 24.753906 3.757812 24.421875 4 C 24.085938 4.25 23.644531 4.25 23.09375 4 C 21.070312 3.0625 19.210938 1.84375 17.515625 0.34375 C 15.828125 -1.144531 14.253906 -2.953125 12.796875 -5.078125 C 11.828125 -2.972656 10.625 -1.222656 9.1875 0.171875 C 7.757812 1.566406 6.054688 2.78125 4.078125 3.8125 C 3.535156 4.09375 3.085938 4.117188 2.734375 3.890625 C 2.390625 3.671875 2.21875 3.265625 2.21875 2.671875 L 2.21875 0.1875 C 2.21875 -0.226562 2.304688 -0.578125 2.484375 -0.859375 C 2.660156 -1.148438 2.921875 -1.421875 3.265625 -1.671875 C 4.867188 -2.703125 6.171875 -3.988281 7.171875 -5.53125 C 8.171875 -7.082031 8.941406 -8.96875 9.484375 -11.1875 C 10.035156 -13.414062 10.421875 -16.0625 10.640625 -19.125 L 3.78125 -19.125 C 2.738281 -19.125 2.21875 -19.644531 2.21875 -20.6875 L 2.21875 -22.390625 C 2.21875 -23.429688 2.738281 -23.953125 3.78125 -23.953125 L 10.859375 -23.953125 C 10.890625 -24.546875 10.90625 -25.148438 10.90625 -25.765625 C 10.90625 -26.390625 10.914062 -27.019531 10.9375 -27.65625 C 10.9375 -28.695312 11.457031 -29.21875 12.5 -29.21875 L 14.53125 -29.21875 C 15.570312 -29.21875 16.09375 -28.695312 16.09375 -27.65625 C 16.070312 -27.019531 16.0625 -26.390625 16.0625 -25.765625 C 16.0625 -25.148438 16.046875 -24.546875 16.015625 -23.953125 L 23.0625 -23.953125 C 24.101562 -23.953125 24.625 -23.429688 24.625 -22.390625 L 24.625 -20.6875 C 24.625 -19.644531 24.101562 -19.125 23.0625 -19.125 L 15.765625 -19.125 C 15.660156 -17.46875 15.503906 -15.941406 15.296875 -14.546875 C 15.085938 -13.148438 14.847656 -11.835938 14.578125 -10.609375 Z M 28.171875 -26.921875 C 28.171875 -27.953125 28.691406 -28.46875 29.734375 -28.46875 L 31.78125 -28.46875 C 32.8125 -28.46875 33.328125 -27.953125 33.328125 -26.921875 L 33.328125 4.671875 C 33.328125 5.710938 32.8125 6.234375 31.78125 6.234375 L 29.734375 6.234375 C 28.691406 6.234375 28.171875 5.710938 28.171875 4.671875 Z M 28.171875 -26.921875 "/></g></g></g><g fill="#000000" fill-opacity="1"><g transform="translate(230.687014, 187.185618)"><g><path d="M 28.171875 -15.796875 C 27.109375 -15.796875 26.617188 -16.328125 26.703125 -17.390625 L 27.109375 -23.578125 L 4.859375 -23.578125 C 3.816406 -23.578125 3.296875 -24.097656 3.296875 -25.140625 L 3.296875 -26.171875 C 3.296875 -27.210938 3.816406 -27.734375 4.859375 -27.734375 L 30.65625 -27.734375 C 31.726562 -27.734375 32.238281 -27.203125 32.1875 -26.140625 L 31.703125 -17.3125 C 31.648438 -16.300781 31.117188 -15.796875 30.109375 -15.796875 Z M 2.328125 -9.828125 C 1.296875 -9.828125 0.78125 -10.347656 0.78125 -11.390625 L 0.78125 -12.3125 C 0.78125 -13.351562 1.296875 -13.875 2.328125 -13.875 L 12.71875 -13.875 L 12.71875 -18.546875 C 12.71875 -19.578125 13.238281 -20.09375 14.28125 -20.09375 L 16.3125 -20.09375 C 17.351562 -20.09375 17.875 -19.578125 17.875 -18.546875 L 17.875 -13.875 L 33.21875 -13.875 C 34.257812 -13.875 34.78125 -13.351562 34.78125 -12.3125 L 34.78125 -11.390625 C 34.78125 -10.347656 34.257812 -9.828125 33.21875 -9.828125 Z M 11.390625 6.421875 C 8.492188 6.421875 6.359375 5.882812 4.984375 4.8125 C 3.609375 3.75 2.921875 2.242188 2.921875 0.296875 L 2.921875 -0.78125 C 2.921875 -2.707031 3.609375 -4.1875 4.984375 -5.21875 C 6.359375 -6.257812 8.492188 -6.78125 11.390625 -6.78125 L 24.171875 -6.78125 C 27.085938 -6.78125 29.222656 -6.265625 30.578125 -5.234375 C 31.941406 -4.210938 32.625 -2.726562 32.625 -0.78125 L 32.625 0.296875 C 32.625 2.242188 31.941406 3.75 30.578125 4.8125 C 29.222656 5.882812 27.085938 6.421875 24.171875 6.421875 Z M 12.34375 2.265625 L 23.203125 2.265625 C 24.785156 2.265625 25.890625 2.066406 26.515625 1.671875 C 27.148438 1.273438 27.46875 0.691406 27.46875 -0.078125 L 27.46875 -0.40625 C 27.46875 -1.125 27.148438 -1.671875 26.515625 -2.046875 C 25.890625 -2.429688 24.785156 -2.625 23.203125 -2.625 L 12.34375 -2.625 C 10.789062 -2.625 9.691406 -2.429688 9.046875 -2.046875 C 8.398438 -1.671875 8.078125 -1.125 8.078125 -0.40625 L 8.078125 -0.078125 C 8.078125 0.691406 8.398438 1.273438 9.046875 1.671875 C 9.691406 2.066406 10.789062 2.265625 12.34375 2.265625 Z M 12.34375 2.265625 "/></g></g></g><g fill="#000000" fill-opacity="1"><g transform="translate(266.278123, 187.185618)"><g><path d="M 11.609375 -11.671875 C 8.460938 -11.671875 6.207031 -12.300781 4.84375 -13.5625 C 3.488281 -14.832031 2.8125 -16.6875 2.8125 -19.125 L 2.8125 -20.25 C 2.8125 -22.71875 3.488281 -24.582031 4.84375 -25.84375 C 6.207031 -27.101562 8.460938 -27.734375 11.609375 -27.734375 L 23.953125 -27.734375 C 27.117188 -27.734375 29.375 -27.101562 30.71875 -25.84375 C 32.0625 -24.582031 32.734375 -22.71875 32.734375 -20.25 L 32.734375 -19.125 C 32.734375 -16.6875 32.0625 -14.832031 30.71875 -13.5625 C 29.375 -12.300781 27.117188 -11.671875 23.953125 -11.671875 Z M 12.609375 -16.46875 L 22.984375 -16.46875 C 24.671875 -16.46875 25.859375 -16.722656 26.546875 -17.234375 C 27.242188 -17.753906 27.59375 -18.5 27.59375 -19.46875 L 27.59375 -19.953125 C 27.59375 -20.941406 27.242188 -21.6875 26.546875 -22.1875 C 25.859375 -22.695312 24.671875 -22.953125 22.984375 -22.953125 L 12.609375 -22.953125 C 10.921875 -22.953125 9.722656 -22.695312 9.015625 -22.1875 C 8.316406 -21.6875 7.96875 -20.941406 7.96875 -19.953125 L 7.96875 -19.46875 C 7.96875 -18.476562 8.316406 -17.726562 9.015625 -17.21875 C 9.722656 -16.71875 10.921875 -16.46875 12.609375 -16.46875 Z M 10.015625 6.421875 C 8.972656 6.421875 8.453125 5.898438 8.453125 4.859375 L 8.453125 -3.078125 L 2.328125 -3.078125 C 1.296875 -3.078125 0.78125 -3.597656 0.78125 -4.640625 L 0.78125 -6.34375 C 0.78125 -7.375 1.296875 -7.890625 2.328125 -7.890625 L 33.21875 -7.890625 C 34.257812 -7.890625 34.78125 -7.375 34.78125 -6.34375 L 34.78125 -4.640625 C 34.78125 -3.597656 34.257812 -3.078125 33.21875 -3.078125 L 27.109375 -3.078125 L 27.109375 4.859375 C 27.109375 5.898438 26.585938 6.421875 25.546875 6.421875 L 23.5 6.421875 C 22.46875 6.421875 21.953125 5.898438 21.953125 4.859375 L 21.953125 -3.078125 L 13.609375 -3.078125 L 13.609375 4.859375 C 13.609375 5.898438 13.085938 6.421875 12.046875 6.421875 Z M 10.015625 6.421875 "/></g></g></g><g fill="#000000" fill-opacity="1"><g transform="translate(301.86922, 187.185618)"><g><path d="M 4.859375 -14.453125 C 3.816406 -14.453125 3.296875 -14.972656 3.296875 -16.015625 L 3.296875 -21.203125 C 3.296875 -22.242188 3.816406 -22.765625 4.859375 -22.765625 L 27.109375 -22.765625 L 27.109375 -24.515625 L 4.859375 -24.515625 C 3.816406 -24.515625 3.296875 -25.03125 3.296875 -26.0625 L 3.296875 -26.28125 C 3.296875 -27.320312 3.816406 -27.84375 4.859375 -27.84375 L 30.703125 -27.84375 C 31.742188 -27.84375 32.265625 -27.320312 32.265625 -26.28125 L 32.265625 -21.171875 C 32.265625 -20.128906 31.742188 -19.609375 30.703125 -19.609375 L 8.453125 -19.609375 L 8.453125 -17.828125 L 30.703125 -17.828125 C 31.742188 -17.828125 32.265625 -17.3125 32.265625 -16.28125 L 32.265625 -16.015625 C 32.265625 -14.972656 31.742188 -14.453125 30.703125 -14.453125 Z M 2.328125 -9.265625 C 1.296875 -9.265625 0.78125 -9.785156 0.78125 -10.828125 L 0.78125 -11.015625 C 0.78125 -12.046875 1.296875 -12.5625 2.328125 -12.5625 L 33.21875 -12.5625 C 34.257812 -12.5625 34.78125 -12.046875 34.78125 -11.015625 L 34.78125 -10.828125 C 34.78125 -9.785156 34.257812 -9.265625 33.21875 -9.265625 Z M 4.859375 6.234375 C 3.816406 6.234375 3.296875 5.710938 3.296875 4.671875 L 3.296875 -0.625 C 3.296875 -1.664062 3.816406 -2.1875 4.859375 -2.1875 L 27.109375 -2.1875 L 27.109375 -3.9375 L 4.859375 -3.9375 C 3.816406 -3.9375 3.296875 -4.453125 3.296875 -5.484375 L 3.296875 -5.75 C 3.296875 -6.78125 3.816406 -7.296875 4.859375 -7.296875 L 30.703125 -7.296875 C 31.742188 -7.296875 32.265625 -6.78125 32.265625 -5.75 L 32.265625 -0.59375 C 32.265625 0.445312 31.742188 0.96875 30.703125 0.96875 L 8.453125 0.96875 L 8.453125 2.859375 L 30.953125 2.859375 C 31.992188 2.859375 32.515625 3.375 32.515625 4.40625 L 32.515625 4.671875 C 32.515625 5.710938 31.992188 6.234375 30.953125 6.234375 Z M 4.859375 6.234375 "/></g></g></g><g fill="#000000" fill-opacity="1"><g transform="translate(337.460318, 187.185618)"><g/></g></g><g fill="#000000" fill-opacity="1"><g transform="translate(348.58255, 187.185618)"><g><path d="M 2.5625 -22.09375 C 1.519531 -22.09375 1 -22.613281 1 -23.65625 L 1 -24.6875 C 1 -25.726562 1.519531 -26.25 2.5625 -26.25 L 9.53125 -26.25 L 9.53125 -27.65625 C 9.53125 -28.695312 10.050781 -29.21875 11.09375 -29.21875 L 12.9375 -29.21875 C 13.976562 -29.21875 14.5 -28.722656 14.5 -27.734375 L 14.5 -26.25 L 21.546875 -26.25 C 22.578125 -26.25 23.09375 -25.726562 23.09375 -24.6875 L 23.09375 -23.65625 C 23.09375 -22.613281 22.578125 -22.09375 21.546875 -22.09375 Z M 27.359375 -1.78125 C 26.328125 -1.78125 25.8125 -2.300781 25.8125 -3.34375 L 25.8125 -26.921875 C 25.8125 -27.953125 26.328125 -28.46875 27.359375 -28.46875 L 29.40625 -28.46875 C 30.4375 -28.46875 30.953125 -27.953125 30.953125 -26.921875 L 30.953125 -17.359375 L 34.03125 -17.359375 C 35.070312 -17.359375 35.59375 -16.835938 35.59375 -15.796875 L 35.59375 -14.09375 C 35.59375 -13.050781 35.070312 -12.53125 34.03125 -12.53125 L 30.953125 -12.53125 L 30.953125 -3.34375 C 30.953125 -2.300781 30.4375 -1.78125 29.40625 -1.78125 Z M 11.609375 -5.453125 C 8.660156 -5.453125 6.375 -6.054688 4.75 -7.265625 C 3.132812 -8.472656 2.328125 -10.28125 2.328125 -12.6875 L 2.328125 -13.234375 C 2.328125 -15.609375 3.128906 -17.398438 4.734375 -18.609375 C 6.347656 -19.828125 8.640625 -20.4375 11.609375 -20.4375 L 12.5 -20.4375 C 15.4375 -20.4375 17.710938 -19.828125 19.328125 -18.609375 C 20.953125 -17.398438 21.765625 -15.609375 21.765625 -13.234375 L 21.765625 -12.6875 C 21.765625 -10.28125 20.953125 -8.472656 19.328125 -7.265625 C 17.710938 -6.054688 15.4375 -5.453125 12.5 -5.453125 Z M 11.796875 -9.78125 L 12.3125 -9.78125 C 13.769531 -9.78125 14.910156 -10.035156 15.734375 -10.546875 C 16.566406 -11.054688 16.984375 -11.804688 16.984375 -12.796875 L 16.984375 -13.125 C 16.984375 -14.113281 16.566406 -14.851562 15.734375 -15.34375 C 14.910156 -15.84375 13.769531 -16.09375 12.3125 -16.09375 L 11.796875 -16.09375 C 10.359375 -16.09375 9.21875 -15.84375 8.375 -15.34375 C 7.539062 -14.851562 7.125 -14.113281 7.125 -13.125 L 7.125 -12.796875 C 7.125 -11.804688 7.539062 -11.054688 8.375 -10.546875 C 9.21875 -10.035156 10.359375 -9.78125 11.796875 -9.78125 Z M 4.859375 6.234375 C 3.816406 6.234375 3.296875 5.710938 3.296875 4.671875 L 3.296875 -1.921875 C 3.296875 -2.960938 3.816406 -3.484375 4.859375 -3.484375 L 6.890625 -3.484375 C 7.929688 -3.484375 8.453125 -2.960938 8.453125 -1.921875 L 8.453125 1.859375 L 29.8125 1.859375 C 30.851562 1.859375 31.375 2.375 31.375 3.40625 L 31.375 4.671875 C 31.375 5.710938 30.851562 6.234375 29.8125 6.234375 Z M 4.859375 6.234375 "/></g></g></g><g fill="#000000" fill-opacity="1"><g transform="translate(384.173648, 187.185618)"><g/></g></g><g fill="#000000" fill-opacity="1"><g transform="translate(395.29588, 187.185618)"><g><path d="M 29.65625 -3 C 28.625 -3 28.109375 -3.519531 28.109375 -4.5625 L 28.109375 -15.046875 L 24.171875 -15.046875 C 23.140625 -15.046875 22.625 -15.566406 22.625 -16.609375 L 22.625 -18.3125 C 22.625 -19.351562 23.140625 -19.875 24.171875 -19.875 L 28.109375 -19.875 L 28.109375 -26.921875 C 28.109375 -27.953125 28.625 -28.46875 29.65625 -28.46875 L 31.625 -28.46875 C 32.664062 -28.46875 33.1875 -27.953125 33.1875 -26.921875 L 33.1875 -4.5625 C 33.1875 -3.519531 32.664062 -3 31.625 -3 Z M 3.96875 -7.78125 C 2.925781 -7.78125 2.40625 -8.300781 2.40625 -9.34375 L 2.40625 -26.359375 C 2.40625 -27.398438 2.925781 -27.921875 3.96875 -27.921875 L 5.828125 -27.921875 C 6.859375 -27.921875 7.375 -27.398438 7.375 -26.359375 L 7.375 -22.171875 L 16.203125 -22.171875 L 16.203125 -26.359375 C 16.203125 -27.398438 16.722656 -27.921875 17.765625 -27.921875 L 19.609375 -27.921875 C 20.648438 -27.921875 21.171875 -27.398438 21.171875 -26.359375 L 21.171875 -9.34375 C 21.171875 -8.300781 20.648438 -7.78125 19.609375 -7.78125 Z M 7.375 -12.390625 L 16.203125 -12.390625 L 16.203125 -17.578125 L 7.375 -17.578125 Z M 5.828125 6.234375 C 4.785156 6.234375 4.265625 5.710938 4.265625 4.671875 L 4.265625 -3.78125 C 4.265625 -4.820312 4.785156 -5.34375 5.828125 -5.34375 L 7.859375 -5.34375 C 8.898438 -5.34375 9.421875 -4.820312 9.421875 -3.78125 L 9.421875 1.625 L 31.890625 1.625 C 32.921875 1.625 33.4375 2.144531 33.4375 3.1875 L 33.4375 4.671875 C 33.4375 5.710938 32.921875 6.234375 31.890625 6.234375 Z M 5.828125 6.234375 "/></g></g></g><g fill="#000000" fill-opacity="1"><g transform="translate(430.886978, 187.185618)"><g><path d="M 21.359375 -14.75 L 21.359375 -26.921875 C 21.359375 -27.953125 21.878906 -28.46875 22.921875 -28.46875 L 24.46875 -28.46875 C 25.507812 -28.46875 26.03125 -27.953125 26.03125 -26.921875 L 26.03125 4.671875 C 26.03125 5.710938 25.507812 6.234375 24.46875 6.234375 L 22.921875 6.234375 C 21.878906 6.234375 21.359375 5.710938 21.359375 4.671875 L 21.359375 -9.9375 L 17.015625 -9.9375 L 17.015625 -3.703125 C 17.015625 -0.785156 16.445312 1.347656 15.3125 2.703125 C 14.175781 4.066406 12.472656 4.75 10.203125 4.75 L 8.671875 4.75 C 6.421875 4.75 4.722656 4.066406 3.578125 2.703125 C 2.429688 1.347656 1.859375 -0.785156 1.859375 -3.703125 L 1.859375 -19.578125 C 1.859375 -22.492188 2.425781 -24.628906 3.5625 -25.984375 C 4.695312 -27.347656 6.398438 -28.03125 8.671875 -28.03125 L 10.203125 -28.03125 C 12.472656 -28.03125 14.175781 -27.347656 15.3125 -25.984375 C 16.445312 -24.628906 17.015625 -22.492188 17.015625 -19.578125 L 17.015625 -14.75 Z M 29.03125 -26.921875 C 29.03125 -27.953125 29.550781 -28.46875 30.59375 -28.46875 L 32.1875 -28.46875 C 33.21875 -28.46875 33.734375 -27.953125 33.734375 -26.921875 L 33.734375 4.671875 C 33.734375 5.710938 33.21875 6.234375 32.1875 6.234375 L 30.59375 6.234375 C 29.550781 6.234375 29.03125 5.710938 29.03125 4.671875 Z M 12.421875 -3.8125 L 12.421875 -19.5 C 12.421875 -21.007812 12.1875 -22.082031 11.71875 -22.71875 C 11.25 -23.363281 10.601562 -23.6875 9.78125 -23.6875 L 9.078125 -23.6875 C 8.285156 -23.6875 7.648438 -23.363281 7.171875 -22.71875 C 6.691406 -22.082031 6.453125 -21.007812 6.453125 -19.5 L 6.453125 -3.8125 C 6.453125 -2.3125 6.691406 -1.234375 7.171875 -0.578125 C 7.648438 0.078125 8.285156 0.40625 9.078125 0.40625 L 9.78125 0.40625 C 10.601562 0.40625 11.25 0.078125 11.71875 -0.578125 C 12.1875 -1.234375 12.421875 -2.3125 12.421875 -3.8125 Z M 12.421875 -3.8125 "/></g></g></g><g fill="#000000" fill-opacity="1"><g transform="translate(466.478075, 187.185618)"><g><path d="M 3.59375 10.53125 C 3.070312 10.625 2.660156 10.539062 2.359375 10.28125 C 2.066406 10.03125 1.921875 9.65625 1.921875 9.15625 L 1.921875 8.90625 C 1.921875 8.425781 2.046875 8.078125 2.296875 7.859375 C 2.546875 7.640625 2.878906 7.429688 3.296875 7.234375 C 3.867188 6.960938 4.234375 6.546875 4.390625 5.984375 C 4.554688 5.429688 4.640625 4.832031 4.640625 4.1875 L 3.484375 4.1875 C 2.441406 4.1875 1.921875 3.664062 1.921875 2.625 L 1.921875 -0.40625 C 1.921875 -1.445312 2.441406 -1.96875 3.484375 -1.96875 L 6.59375 -1.96875 C 7.632812 -1.96875 8.15625 -1.445312 8.15625 -0.40625 L 8.15625 4.40625 C 8.15625 6.132812 7.757812 7.503906 6.96875 8.515625 C 6.175781 9.535156 5.050781 10.207031 3.59375 10.53125 Z M 3.59375 10.53125 "/></g></g></g><g fill="#000000" fill-opacity="1"><g transform="translate(476.939094, 187.185618)"><g/></g></g><g fill="#000000" fill-opacity="1"><g transform="translate(41.609306, 242.591865)"><g><path d="M 31.203125 -17.78125 C 29.992188 -17.78125 29.429688 -18.375 29.515625 -19.5625 L 29.96875 -25.9375 L 5.515625 -25.9375 C 4.359375 -25.9375 3.78125 -26.515625 3.78125 -27.671875 L 3.78125 -29.0625 C 3.78125 -30.21875 4.359375 -30.796875 5.515625 -30.796875 L 33.921875 -30.796875 C 35.109375 -30.796875 35.671875 -30.207031 35.609375 -29.03125 L 35.078125 -19.46875 C 35.023438 -18.34375 34.4375 -17.78125 33.3125 -17.78125 Z M 38.625 -13.546875 C 38.625 -12.390625 38.046875 -11.8125 36.890625 -11.8125 L 22.609375 -11.8125 L 22.609375 -5.96875 L 34.09375 -5.96875 C 35.238281 -5.96875 35.8125 -5.390625 35.8125 -4.234375 L 35.8125 5.59375 C 35.8125 6.75 35.238281 7.328125 34.09375 7.328125 L 31.828125 7.328125 C 30.671875 7.328125 30.09375 6.75 30.09375 5.59375 L 30.09375 -1.109375 L 5.265625 -1.109375 C 4.117188 -1.109375 3.546875 -1.6875 3.546875 -2.84375 L 3.546875 -4.234375 C 3.546875 -5.390625 4.117188 -5.96875 5.265625 -5.96875 L 16.875 -5.96875 L 16.875 -11.8125 L 2.59375 -11.8125 C 1.4375 -11.8125 0.859375 -12.390625 0.859375 -13.546875 L 0.859375 -14.703125 C 0.859375 -15.847656 1.4375 -16.421875 2.59375 -16.421875 L 36.890625 -16.421875 C 38.046875 -16.421875 38.625 -15.847656 38.625 -14.703125 Z M 38.625 -13.546875 "/></g></g></g><g fill="#000000" fill-opacity="1"><g transform="translate(81.131149, 242.591865)"><g><path d="M 22.9375 6.921875 C 21.78125 6.921875 21.203125 6.34375 21.203125 5.1875 L 21.203125 -29.890625 C 21.203125 -31.046875 21.78125 -31.625 22.9375 -31.625 L 24.703125 -31.625 C 25.859375 -31.625 26.4375 -31.046875 26.4375 -29.890625 L 26.4375 -16.390625 L 32.109375 -16.390625 L 32.109375 -29.890625 C 32.109375 -31.046875 32.6875 -31.625 33.84375 -31.625 L 35.578125 -31.625 C 36.722656 -31.625 37.296875 -31.046875 37.296875 -29.890625 L 37.296875 5.1875 C 37.296875 6.34375 36.722656 6.921875 35.578125 6.921875 L 33.84375 6.921875 C 32.6875 6.921875 32.109375 6.34375 32.109375 5.1875 L 32.109375 -11.03125 L 26.4375 -11.03125 L 26.4375 5.1875 C 26.4375 6.34375 25.859375 6.921875 24.703125 6.921875 Z M 3.90625 4.9375 C 2.757812 4.9375 2.1875 4.363281 2.1875 3.21875 L 2.1875 -29.0625 C 2.1875 -30.21875 2.757812 -30.796875 3.90625 -30.796875 L 5.96875 -30.796875 C 7.125 -30.796875 7.703125 -30.21875 7.703125 -29.0625 L 7.703125 -0.40625 L 17.5 -0.40625 C 18.65625 -0.40625 19.234375 0.164062 19.234375 1.3125 L 19.234375 3.21875 C 19.234375 4.363281 18.65625 4.9375 17.5 4.9375 Z M 3.90625 4.9375 "/></g></g></g><g fill="#000000" fill-opacity="1"><g transform="translate(120.652993, 242.591865)"><g/></g></g><g fill="#000000" fill-opacity="1"><g transform="translate(133.00357, 242.591865)"><g><path d="M 32.859375 6.921875 C 31.703125 6.921875 31.125 6.34375 31.125 5.1875 L 31.125 -3.21875 L 26.84375 -3.21875 C 25.6875 -3.21875 25.109375 -3.789062 25.109375 -4.9375 L 25.109375 -6.828125 C 25.109375 -7.984375 25.6875 -8.5625 26.84375 -8.5625 L 31.125 -8.5625 L 31.125 -18.5625 L 26.84375 -18.5625 C 25.6875 -18.5625 25.109375 -19.140625 25.109375 -20.296875 L 25.109375 -22.1875 C 25.109375 -23.34375 25.6875 -23.921875 26.84375 -23.921875 L 31.125 -23.921875 L 31.125 -29.890625 C 31.125 -31.046875 31.703125 -31.625 32.859375 -31.625 L 35.125 -31.625 C 36.269531 -31.625 36.84375 -31.046875 36.84375 -29.890625 L 36.84375 5.1875 C 36.84375 6.34375 36.269531 6.921875 35.125 6.921875 Z M 12.34375 5.265625 C 9.132812 5.265625 6.71875 4.507812 5.09375 3 C 3.476562 1.488281 2.671875 -0.878906 2.671875 -4.109375 L 2.671875 -21.734375 C 2.671875 -24.972656 3.472656 -27.347656 5.078125 -28.859375 C 6.691406 -30.367188 9.113281 -31.125 12.34375 -31.125 L 13.828125 -31.125 C 17.046875 -31.125 19.460938 -30.367188 21.078125 -28.859375 C 22.703125 -27.347656 23.515625 -24.972656 23.515625 -21.734375 L 23.515625 -4.109375 C 23.515625 -0.878906 22.695312 1.488281 21.0625 3 C 19.425781 4.507812 17.015625 5.265625 13.828125 5.265625 Z M 12.796875 -0.046875 L 13.375 -0.046875 C 14.75 -0.046875 15.828125 -0.382812 16.609375 -1.0625 C 17.390625 -1.75 17.78125 -2.890625 17.78125 -4.484375 L 17.78125 -21.375 C 17.78125 -22.988281 17.390625 -24.128906 16.609375 -24.796875 C 15.828125 -25.472656 14.75 -25.8125 13.375 -25.8125 L 12.796875 -25.8125 C 11.453125 -25.8125 10.382812 -25.472656 9.59375 -24.796875 C 8.800781 -24.128906 8.40625 -22.988281 8.40625 -21.375 L 8.40625 -4.484375 C 8.40625 -2.890625 8.800781 -1.75 9.59375 -1.0625 C 10.382812 -0.382812 11.453125 -0.046875 12.796875 -0.046875 Z M 12.796875 -0.046875 "/></g></g></g><g fill="#000000" fill-opacity="1"><g transform="translate(172.525413, 242.591865)"><g><path d="M 3.21875 -24.875 C 2.0625 -24.875 1.484375 -25.445312 1.484375 -26.59375 L 1.484375 -27.46875 C 1.484375 -28.613281 2.0625 -29.1875 3.21875 -29.1875 L 8.859375 -29.1875 L 8.859375 -30.71875 C 8.859375 -31.863281 9.429688 -32.4375 10.578125 -32.4375 L 12.4375 -32.4375 C 13.582031 -32.4375 14.15625 -31.90625 14.15625 -30.84375 L 14.15625 -29.1875 L 19.84375 -29.1875 C 21 -29.1875 21.578125 -28.613281 21.578125 -27.46875 L 21.578125 -26.59375 C 21.578125 -25.445312 21 -24.875 19.84375 -24.875 Z M 34.546875 -6.828125 C 33.390625 -6.828125 32.8125 -7.40625 32.8125 -8.5625 L 32.8125 -16.84375 L 28.734375 -16.84375 L 28.734375 -9.640625 C 28.734375 -8.484375 28.160156 -7.90625 27.015625 -7.90625 L 25.359375 -7.90625 C 24.203125 -7.90625 23.625 -8.484375 23.625 -9.640625 L 23.625 -29.890625 C 23.625 -31.046875 24.203125 -31.625 25.359375 -31.625 L 27.015625 -31.625 C 28.160156 -31.625 28.734375 -31.046875 28.734375 -29.890625 L 28.734375 -21.9375 L 32.8125 -21.9375 L 32.8125 -29.890625 C 32.8125 -31.046875 33.390625 -31.625 34.546875 -31.625 L 36.1875 -31.625 C 37.34375 -31.625 37.921875 -31.046875 37.921875 -29.890625 L 37.921875 -8.5625 C 37.921875 -7.40625 37.34375 -6.828125 36.1875 -6.828125 Z M 11.078125 -8.359375 C 8.222656 -8.359375 6.046875 -8.953125 4.546875 -10.140625 C 3.054688 -11.335938 2.3125 -13.078125 2.3125 -15.359375 L 2.3125 -15.96875 C 2.3125 -20.632812 5.234375 -22.96875 11.078125 -22.96875 L 12.0625 -22.96875 C 17.90625 -22.96875 20.828125 -20.632812 20.828125 -15.96875 L 20.828125 -15.359375 C 20.828125 -13.078125 20.078125 -11.335938 18.578125 -10.140625 C 17.085938 -8.953125 14.914062 -8.359375 12.0625 -8.359375 Z M 11.28125 -12.71875 L 11.859375 -12.71875 C 13.117188 -12.71875 14.113281 -12.953125 14.84375 -13.421875 C 15.570312 -13.890625 15.9375 -14.578125 15.9375 -15.484375 L 15.9375 -15.84375 C 15.9375 -16.78125 15.570312 -17.472656 14.84375 -17.921875 C 14.113281 -18.378906 13.117188 -18.609375 11.859375 -18.609375 L 11.28125 -18.609375 C 10.019531 -18.609375 9.023438 -18.378906 8.296875 -17.921875 C 7.566406 -17.472656 7.203125 -16.78125 7.203125 -15.84375 L 7.203125 -15.484375 C 7.203125 -14.578125 7.566406 -13.890625 8.296875 -13.421875 C 9.023438 -12.953125 10.019531 -12.71875 11.28125 -12.71875 Z M 14.078125 7.125 C 10.753906 7.125 8.316406 6.628906 6.765625 5.640625 C 5.222656 4.648438 4.453125 3.222656 4.453125 1.359375 L 4.453125 -0.28125 C 4.453125 -2.15625 5.222656 -3.582031 6.765625 -4.5625 C 8.316406 -5.550781 10.753906 -6.046875 14.078125 -6.046875 L 28.65625 -6.046875 C 31.976562 -6.046875 34.414062 -5.550781 35.96875 -4.5625 C 37.519531 -3.582031 38.296875 -2.15625 38.296875 -0.28125 L 38.296875 1.359375 C 38.296875 3.222656 37.519531 4.648438 35.96875 5.640625 C 34.414062 6.628906 31.976562 7.125 28.65625 7.125 Z M 15.390625 2.640625 L 27.34375 2.640625 C 29.257812 2.640625 30.609375 2.476562 31.390625 2.15625 C 32.171875 1.84375 32.5625 1.382812 32.5625 0.78125 L 32.5625 0.28125 C 32.5625 -0.34375 32.171875 -0.804688 31.390625 -1.109375 C 30.609375 -1.410156 29.257812 -1.5625 27.34375 -1.5625 L 15.390625 -1.5625 C 13.472656 -1.5625 12.125 -1.410156 11.34375 -1.109375 C 10.5625 -0.804688 10.171875 -0.34375 10.171875 0.28125 L 10.171875 0.78125 C 10.171875 1.382812 10.5625 1.84375 11.34375 2.15625 C 12.125 2.476562 13.472656 2.640625 15.390625 2.640625 Z M 15.390625 2.640625 "/></g></g></g><g fill="#000000" fill-opacity="1"><g transform="translate(212.047257, 242.591865)"><g/></g></g><g fill="#000000" fill-opacity="1"><g transform="translate(224.397833, 242.591865)"><g><path d="M 22.609375 -13.625 L 36.890625 -13.625 C 38.046875 -13.625 38.625 -13.050781 38.625 -11.90625 L 38.625 -10.875 C 38.625 -9.71875 38.046875 -9.140625 36.890625 -9.140625 L 2.59375 -9.140625 C 1.4375 -9.140625 0.859375 -9.71875 0.859375 -10.875 L 0.859375 -11.90625 C 0.859375 -13.050781 1.4375 -13.625 2.59375 -13.625 L 16.875 -13.625 L 16.875 -17.375 L 5.390625 -17.375 C 4.242188 -17.375 3.671875 -17.953125 3.671875 -19.109375 L 3.671875 -29.0625 C 3.671875 -30.21875 4.242188 -30.796875 5.390625 -30.796875 L 34.09375 -30.796875 C 35.238281 -30.796875 35.8125 -30.21875 35.8125 -29.0625 L 35.8125 -28.03125 C 35.8125 -26.882812 35.238281 -26.3125 34.09375 -26.3125 L 9.390625 -26.3125 L 9.390625 -21.859375 L 34.09375 -21.859375 C 35.238281 -21.859375 35.8125 -21.285156 35.8125 -20.140625 L 35.8125 -19.109375 C 35.8125 -17.953125 35.238281 -17.375 34.09375 -17.375 L 22.609375 -17.375 Z M 26.84375 -6.546875 C 30.082031 -6.546875 32.457031 -6.015625 33.96875 -4.953125 C 35.476562 -3.898438 36.234375 -2.359375 36.234375 -0.328125 L 36.234375 0.90625 C 36.234375 2.90625 35.476562 4.441406 33.96875 5.515625 C 32.457031 6.585938 30.082031 7.125 26.84375 7.125 L 12.640625 7.125 C 9.429688 7.125 7.0625 6.585938 5.53125 5.515625 C 4.007812 4.441406 3.25 2.90625 3.25 0.90625 L 3.25 -0.328125 C 3.25 -2.359375 4.007812 -3.898438 5.53125 -4.953125 C 7.0625 -6.015625 9.429688 -6.546875 12.640625 -6.546875 Z M 30.515625 0.453125 L 30.515625 0.078125 C 30.515625 -0.628906 30.160156 -1.164062 29.453125 -1.53125 C 28.753906 -1.90625 27.53125 -2.09375 25.78125 -2.09375 L 13.703125 -2.09375 C 11.972656 -2.09375 10.75 -1.90625 10.03125 -1.53125 C 9.320312 -1.164062 8.96875 -0.628906 8.96875 0.078125 L 8.96875 0.453125 C 8.96875 1.160156 9.320312 1.703125 10.03125 2.078125 C 10.75 2.453125 11.972656 2.640625 13.703125 2.640625 L 25.78125 2.640625 C 27.53125 2.640625 28.753906 2.453125 29.453125 2.078125 C 30.160156 1.703125 30.515625 1.160156 30.515625 0.453125 Z M 30.515625 0.453125 "/></g></g></g><g fill="#000000" fill-opacity="1"><g transform="translate(263.919688, 242.591865)"><g><path d="M 3.21875 -24.875 C 2.0625 -24.875 1.484375 -25.445312 1.484375 -26.59375 L 1.484375 -27.46875 C 1.484375 -28.613281 2.0625 -29.1875 3.21875 -29.1875 L 8.859375 -29.1875 L 8.859375 -30.71875 C 8.859375 -31.863281 9.429688 -32.4375 10.578125 -32.4375 L 12.4375 -32.4375 C 13.582031 -32.4375 14.15625 -31.90625 14.15625 -30.84375 L 14.15625 -29.1875 L 19.84375 -29.1875 C 21 -29.1875 21.578125 -28.613281 21.578125 -27.46875 L 21.578125 -26.59375 C 21.578125 -25.445312 21 -24.875 19.84375 -24.875 Z M 34.546875 -6.828125 C 33.390625 -6.828125 32.8125 -7.40625 32.8125 -8.5625 L 32.8125 -16.84375 L 28.734375 -16.84375 L 28.734375 -9.640625 C 28.734375 -8.484375 28.160156 -7.90625 27.015625 -7.90625 L 25.359375 -7.90625 C 24.203125 -7.90625 23.625 -8.484375 23.625 -9.640625 L 23.625 -29.890625 C 23.625 -31.046875 24.203125 -31.625 25.359375 -31.625 L 27.015625 -31.625 C 28.160156 -31.625 28.734375 -31.046875 28.734375 -29.890625 L 28.734375 -21.9375 L 32.8125 -21.9375 L 32.8125 -29.890625 C 32.8125 -31.046875 33.390625 -31.625 34.546875 -31.625 L 36.1875 -31.625 C 37.34375 -31.625 37.921875 -31.046875 37.921875 -29.890625 L 37.921875 -8.5625 C 37.921875 -7.40625 37.34375 -6.828125 36.1875 -6.828125 Z M 11.078125 -8.359375 C 8.222656 -8.359375 6.046875 -8.953125 4.546875 -10.140625 C 3.054688 -11.335938 2.3125 -13.078125 2.3125 -15.359375 L 2.3125 -15.96875 C 2.3125 -20.632812 5.234375 -22.96875 11.078125 -22.96875 L 12.0625 -22.96875 C 17.90625 -22.96875 20.828125 -20.632812 20.828125 -15.96875 L 20.828125 -15.359375 C 20.828125 -13.078125 20.078125 -11.335938 18.578125 -10.140625 C 17.085938 -8.953125 14.914062 -8.359375 12.0625 -8.359375 Z M 11.28125 -12.71875 L 11.859375 -12.71875 C 13.117188 -12.71875 14.113281 -12.953125 14.84375 -13.421875 C 15.570312 -13.890625 15.9375 -14.578125 15.9375 -15.484375 L 15.9375 -15.84375 C 15.9375 -16.78125 15.570312 -17.472656 14.84375 -17.921875 C 14.113281 -18.378906 13.117188 -18.609375 11.859375 -18.609375 L 11.28125 -18.609375 C 10.019531 -18.609375 9.023438 -18.378906 8.296875 -17.921875 C 7.566406 -17.472656 7.203125 -16.78125 7.203125 -15.84375 L 7.203125 -15.484375 C 7.203125 -14.578125 7.566406 -13.890625 8.296875 -13.421875 C 9.023438 -12.953125 10.019531 -12.71875 11.28125 -12.71875 Z M 14.078125 7.125 C 10.753906 7.125 8.316406 6.628906 6.765625 5.640625 C 5.222656 4.648438 4.453125 3.222656 4.453125 1.359375 L 4.453125 -0.28125 C 4.453125 -2.15625 5.222656 -3.582031 6.765625 -4.5625 C 8.316406 -5.550781 10.753906 -6.046875 14.078125 -6.046875 L 28.65625 -6.046875 C 31.976562 -6.046875 34.414062 -5.550781 35.96875 -4.5625 C 37.519531 -3.582031 38.296875 -2.15625 38.296875 -0.28125 L 38.296875 1.359375 C 38.296875 3.222656 37.519531 4.648438 35.96875 5.640625 C 34.414062 6.628906 31.976562 7.125 28.65625 7.125 Z M 15.390625 2.640625 L 27.34375 2.640625 C 29.257812 2.640625 30.609375 2.476562 31.390625 2.15625 C 32.171875 1.84375 32.5625 1.382812 32.5625 0.78125 L 32.5625 0.28125 C 32.5625 -0.34375 32.171875 -0.804688 31.390625 -1.109375 C 30.609375 -1.410156 29.257812 -1.5625 27.34375 -1.5625 L 15.390625 -1.5625 C 13.472656 -1.5625 12.125 -1.410156 11.34375 -1.109375 C 10.5625 -0.804688 10.171875 -0.34375 10.171875 0.28125 L 10.171875 0.78125 C 10.171875 1.382812 10.5625 1.84375 11.34375 2.15625 C 12.125 2.476562 13.472656 2.640625 15.390625 2.640625 Z M 15.390625 2.640625 "/></g></g></g><g fill="#000000" fill-opacity="1"><g transform="translate(303.441543, 242.591865)"><g/></g></g><g fill="#000000" fill-opacity="1"><g transform="translate(315.79212, 242.591865)"><g><path d="M 31.125 -29.890625 C 31.125 -31.046875 31.703125 -31.625 32.859375 -31.625 L 35.125 -31.625 C 36.269531 -31.625 36.84375 -31.046875 36.84375 -29.890625 L 36.84375 5.1875 C 36.84375 6.34375 36.269531 6.921875 35.125 6.921875 L 32.859375 6.921875 C 31.703125 6.921875 31.125 6.34375 31.125 5.1875 L 31.125 -11.9375 L 25.6875 -11.9375 C 24.539062 -11.9375 23.96875 -12.515625 23.96875 -13.671875 L 23.96875 -15.609375 C 23.96875 -16.753906 24.539062 -17.328125 25.6875 -17.328125 L 31.125 -17.328125 Z M 4.40625 -25.484375 C 3.25 -25.484375 2.671875 -26.0625 2.671875 -27.21875 L 2.671875 -29.0625 C 2.671875 -30.21875 3.25 -30.796875 4.40625 -30.796875 L 20.625 -30.796875 C 21.78125 -30.796875 22.359375 -30.21875 22.359375 -29.0625 L 22.359375 -13.703125 C 22.359375 -9.972656 21.703125 -6.859375 20.390625 -4.359375 C 19.085938 -1.867188 17.125 0.125 14.5 1.625 C 11.882812 3.125 8.570312 4.253906 4.5625 5.015625 C 3.300781 5.242188 2.671875 4.722656 2.671875 3.453125 L 2.671875 0.859375 C 2.671875 -0.179688 3.207031 -0.796875 4.28125 -0.984375 C 8.457031 -1.867188 11.484375 -3.207031 13.359375 -5 C 15.242188 -6.800781 16.304688 -9.140625 16.546875 -12.015625 L 4.40625 -12.015625 C 3.25 -12.015625 2.671875 -12.59375 2.671875 -13.75 L 2.671875 -15.609375 C 2.671875 -16.753906 3.25 -17.328125 4.40625 -17.328125 L 16.640625 -17.328125 L 16.640625 -25.484375 Z M 4.40625 -25.484375 "/></g></g></g><g fill="#000000" fill-opacity="1"><g transform="translate(355.313975, 242.591865)"><g><path d="M 5.265625 -12.96875 C 4.117188 -12.96875 3.546875 -13.546875 3.546875 -14.703125 L 3.546875 -29.0625 C 3.546875 -30.21875 4.117188 -30.796875 5.265625 -30.796875 L 34.21875 -30.796875 C 35.363281 -30.796875 35.9375 -30.21875 35.9375 -29.0625 L 35.9375 -14.703125 C 35.9375 -13.546875 35.363281 -12.96875 34.21875 -12.96875 Z M 9.265625 -18.28125 L 30.21875 -18.28125 L 30.21875 -25.484375 L 9.265625 -25.484375 Z M 11.109375 7.125 C 9.960938 7.125 9.390625 6.546875 9.390625 5.390625 L 9.390625 -3.421875 L 2.59375 -3.421875 C 1.4375 -3.421875 0.859375 -3.992188 0.859375 -5.140625 L 0.859375 -7.046875 C 0.859375 -8.191406 1.4375 -8.765625 2.59375 -8.765625 L 36.890625 -8.765625 C 38.046875 -8.765625 38.625 -8.191406 38.625 -7.046875 L 38.625 -5.140625 C 38.625 -3.992188 38.046875 -3.421875 36.890625 -3.421875 L 30.09375 -3.421875 L 30.09375 5.390625 C 30.09375 6.546875 29.519531 7.125 28.375 7.125 L 26.109375 7.125 C 24.953125 7.125 24.375 6.546875 24.375 5.390625 L 24.375 -3.421875 L 15.109375 -3.421875 L 15.109375 5.390625 C 15.109375 6.546875 14.53125 7.125 13.375 7.125 Z M 11.109375 7.125 "/></g></g></g><g fill="#000000" fill-opacity="1"><g transform="translate(394.835829, 242.591865)"><g><path d="M 32.6875 6.921875 C 31.539062 6.921875 30.96875 6.34375 30.96875 5.1875 L 30.96875 -29.890625 C 30.96875 -31.046875 31.539062 -31.625 32.6875 -31.625 L 34.953125 -31.625 C 36.109375 -31.625 36.6875 -31.046875 36.6875 -29.890625 L 36.6875 5.1875 C 36.6875 6.34375 36.109375 6.921875 34.953125 6.921875 Z M 4.5625 4.9375 C 3.414062 4.9375 2.84375 4.363281 2.84375 3.21875 L 2.84375 -29.0625 C 2.84375 -30.21875 3.414062 -30.796875 4.5625 -30.796875 L 6.828125 -30.796875 C 7.984375 -30.796875 8.5625 -30.21875 8.5625 -29.0625 L 8.5625 -0.40625 L 25.8125 -0.40625 C 26.96875 -0.40625 27.546875 0.164062 27.546875 1.3125 L 27.546875 3.21875 C 27.546875 4.363281 26.96875 4.9375 25.8125 4.9375 Z M 4.5625 4.9375 "/></g></g></g><g fill="#000000" fill-opacity="1"><g transform="translate(434.357684, 242.591865)"><g><path d="M 32.859375 6.921875 C 31.703125 6.921875 31.125 6.34375 31.125 5.1875 L 31.125 -29.890625 C 31.125 -31.046875 31.703125 -31.625 32.859375 -31.625 L 35.125 -31.625 C 36.269531 -31.625 36.84375 -31.046875 36.84375 -29.890625 L 36.84375 5.1875 C 36.84375 6.34375 36.269531 6.921875 35.125 6.921875 Z M 4.40625 4.9375 C 3.25 4.9375 2.671875 4.363281 2.671875 3.21875 L 2.671875 -29.0625 C 2.671875 -30.21875 3.25 -30.796875 4.40625 -30.796875 L 24.65625 -30.796875 C 25.8125 -30.796875 26.390625 -30.21875 26.390625 -29.0625 L 26.390625 -27.21875 C 26.390625 -26.0625 25.8125 -25.484375 24.65625 -25.484375 L 8.40625 -25.484375 L 8.40625 -15.640625 L 23.140625 -15.640625 C 24.296875 -15.640625 24.875 -15.066406 24.875 -13.921875 L 24.875 -12.015625 C 24.875 -10.867188 24.296875 -10.296875 23.140625 -10.296875 L 8.40625 -10.296875 L 8.40625 -0.40625 L 25.484375 -0.40625 C 26.640625 -0.40625 27.21875 0.164062 27.21875 1.3125 L 27.21875 3.21875 C 27.21875 4.363281 26.640625 4.9375 25.484375 4.9375 Z M 4.40625 4.9375 "/></g></g></g></svg>