<svg xmlns="http://www.w3.org/2000/svg" xmlns:xlink="http://www.w3.org/1999/xlink" width="345" zoomAndPan="magnify" viewBox="0 0 258.75 135.750003" height="181" preserveAspectRatio="xMidYMid meet" version="1.0"><defs><filter x="0%" y="0%" width="100%" height="100%" id="26c6243e2b"><feColorMatrix values="0 0 0 0 1 0 0 0 0 1 0 0 0 0 1 0 0 0 1 0" color-interpolation-filters="sRGB"/></filter><g/><clipPath id="d3bd967c4d"><path d="M 146.0625 0 L 257.609375 0 L 257.609375 48.660156 L 146.0625 48.660156 Z M 146.0625 0 " clip-rule="nonzero"/></clipPath><clipPath id="feb795d298"><path d="M 11 1 L 18 1 L 18 3.554688 L 11 3.554688 Z M 11 1 " clip-rule="nonzero"/></clipPath><clipPath id="b69fd35c78"><path d="M 7.886719 -24.878906 L 20.546875 -24.878906 L 20.546875 -12 L 7.886719 -12 Z M 7.886719 -24.878906 " clip-rule="nonzero"/></clipPath><mask id="1dcc352d9e"><g><g filter="url(#26c6243e2b)"><g><g><g clip-path="url(#feb795d298)"><path fill="#292f33" d="M 11.96875 3.222656 C 11.355469 3 11.050781 2.722656 11.050781 2.386719 C 11.050781 2.054688 11.355469 1.769531 11.96875 1.527344 C 12.578125 1.285156 13.328125 1.167969 14.214844 1.167969 C 15.105469 1.167969 15.855469 1.285156 16.464844 1.527344 C 17.078125 1.769531 17.382812 2.054688 17.382812 2.386719 C 17.382812 2.722656 17.078125 3 16.464844 3.222656 C 15.855469 3.441406 15.105469 3.554688 14.214844 3.554688 C 13.328125 3.554688 12.578125 3.441406 11.96875 3.222656 Z M 11.96875 3.222656 " fill-opacity="1" fill-rule="nonzero"/></g><g clip-path="url(#b69fd35c78)"><path fill="#dd2e44" d="M 7.886719 -18.546875 C 7.886719 -20.289062 8.503906 -21.777344 9.746094 -23.019531 C 10.984375 -24.257812 12.476562 -24.878906 14.214844 -24.878906 C 15.957031 -24.878906 17.445312 -24.257812 18.6875 -23.019531 C 19.925781 -21.777344 20.546875 -20.289062 20.546875 -18.546875 C 20.546875 -17.398438 20.261719 -16.34375 19.6875 -15.382812 C 19.113281 -14.421875 18.34375 -13.652344 17.382812 -13.078125 C 16.417969 -12.503906 15.363281 -12.21875 14.214844 -12.21875 C 13.660156 -12.21875 13.105469 -12.300781 12.550781 -12.46875 C 11.996094 -12.632812 11.484375 -12.847656 11.023438 -13.105469 C 10.5625 -13.363281 10.136719 -13.6875 9.746094 -14.078125 C 9.355469 -14.464844 9.023438 -14.890625 8.746094 -15.355469 C 8.46875 -15.816406 8.257812 -16.328125 8.109375 -16.882812 C 7.960938 -17.4375 7.886719 -17.992188 7.886719 -18.546875 Z M 7.886719 -18.546875 " fill-opacity="1" fill-rule="nonzero"/></g></g></g></g></g></mask></defs><g clip-path="url(#d3bd967c4d)"><path fill="#9f00fc" d="M 246.976562 48.660156 L 146.101562 48.660156 L 156.691406 0 L 257.566406 0 Z M 246.976562 48.660156 " fill-opacity="1" fill-rule="nonzero"/></g><path fill="#ffffff" d="M 173.480469 20.699219 L 169.085938 41.082031 L 162.84375 41.082031 L 170.179688 7.578125 L 176.464844 7.578125 L 178.605469 27.222656 L 182.910156 7.578125 L 189.152344 7.578125 L 181.816406 41.082031 L 175.863281 41.082031 Z M 194.34375 7.578125 L 208.925781 7.578125 L 207.71875 13.164062 L 199.425781 13.164062 L 197.621094 21.257812 L 205.558594 21.257812 L 204.308594 26.839844 L 196.417969 26.839844 L 194.476562 35.519531 L 202.769531 35.519531 L 201.566406 41.101562 L 186.988281 41.101562 Z M 223.390625 19.488281 L 215.902344 41.082031 L 209.503906 41.082031 L 211.152344 7.578125 L 217.441406 7.578125 L 215.300781 30.027344 L 223.460938 7.578125 L 228.410156 7.578125 L 226.714844 30.027344 L 234.359375 7.578125 L 240.847656 7.578125 L 227.804688 41.082031 L 221.410156 41.082031 Z M 223.390625 19.488281 " fill-opacity="1" fill-rule="nonzero"/><g fill="#000000" fill-opacity="1"><g transform="translate(10.718548, 112.785951)"><g><rect x="-1.1" width="1.2" height="1.2" y="-1.1" mask="url(#1dcc352d9e)"/></g></g></g></svg>