<svg width="18" height="17" viewBox="0 0 18 17" fill="none" xmlns="http://www.w3.org/2000/svg">
<path d="M9 0.0551758C4.0293 0.0551758 0 3.28572 0 7.27128C0 9.84749 1.6848 12.108 4.2183 13.3846C4.0806 13.8678 3.3327 16.4962 3.303 16.7012C3.303 16.7012 3.285 16.8559 3.384 16.9153C3.41719 16.9325 3.45351 16.9425 3.49068 16.9447C3.52785 16.9469 3.56507 16.9413 3.6 16.9282C3.8835 16.8888 6.8841 14.7455 7.4034 14.373C7.93231 14.449 8.46584 14.4869 9 14.4865C13.9707 14.4865 18 11.2559 18 7.27128C18 3.28664 13.9707 0.0551758 9 0.0551758ZM4.5432 9.28557C4.5354 9.42025 4.47729 9.5468 4.38076 9.63935C4.28423 9.73189 4.15657 9.78344 4.0239 9.78344C3.89123 9.78344 3.76357 9.73189 3.66704 9.63935C3.57051 9.5468 3.5124 9.42025 3.5046 9.28557V6.14929H2.6946C2.62782 6.14929 2.5617 6.13591 2.50001 6.10993C2.43831 6.08394 2.38225 6.04586 2.33504 5.99784C2.28782 5.94983 2.25036 5.89283 2.22481 5.83009C2.19925 5.76736 2.1861 5.70012 2.1861 5.63222C2.1861 5.56431 2.19925 5.49708 2.22481 5.43434C2.25036 5.37161 2.28782 5.31461 2.33504 5.26659C2.38225 5.21858 2.43831 5.18049 2.50001 5.15451C2.5617 5.12852 2.62782 5.11515 2.6946 5.11515H5.3532C5.48806 5.11515 5.6174 5.16962 5.71276 5.26659C5.80813 5.36356 5.8617 5.49508 5.8617 5.63222C5.8617 5.76935 5.80813 5.90087 5.71276 5.99784C5.6174 6.09481 5.48806 6.14929 5.3532 6.14929H4.5432V9.28557ZM8.9073 9.71021C8.80364 9.75833 8.69095 9.78299 8.577 9.78251C8.49022 9.79371 8.40215 9.77739 8.32483 9.73579C8.24751 9.69418 8.18471 9.62932 8.145 9.55006L7.8876 8.86551H6.3045L6.0471 9.55006C6.00739 9.62932 5.94459 9.69418 5.86727 9.73579C5.78995 9.77739 5.70188 9.79371 5.6151 9.78251C5.50145 9.78289 5.38907 9.75822 5.2857 9.71021C5.1426 9.64249 5.0049 9.45854 5.1624 8.96069L6.4044 5.63588C6.4475 5.48306 6.53834 5.34866 6.66321 5.25299C6.78807 5.15732 6.94016 5.10558 7.0965 5.10558C7.25284 5.10558 7.40493 5.15732 7.52979 5.25299C7.65466 5.34866 7.7455 5.48306 7.7886 5.63588L9.0297 8.95794C9.1881 9.45854 9.0504 9.6434 8.91 9.71021H8.9073ZM11.5317 9.71021H9.8658C9.73672 9.71291 9.61186 9.66347 9.51857 9.57273C9.42528 9.48198 9.37117 9.35733 9.3681 9.22609V5.6432C9.3681 5.50024 9.42395 5.36313 9.52336 5.26204C9.62278 5.16096 9.75761 5.10416 9.8982 5.10416C10.0388 5.10416 10.1736 5.16096 10.273 5.26204C10.3724 5.36313 10.4283 5.50024 10.4283 5.6432V8.74471H11.5317C11.658 8.74471 11.7791 8.79571 11.8684 8.8865C11.9576 8.9773 12.0078 9.10043 12.0078 9.22883C12.0078 9.35723 11.9576 9.48037 11.8684 9.57116C11.7791 9.66195 11.658 9.71296 11.5317 9.71296V9.71021ZM15.3945 9.66079C15.3048 9.73036 15.195 9.7677 15.0822 9.76695C15.0018 9.76734 14.9223 9.7486 14.8503 9.71221C14.7783 9.67582 14.7156 9.62279 14.6673 9.55738L13.4496 7.91648L13.2696 8.09951V9.25171C13.2696 9.39176 13.2149 9.52607 13.1175 9.6251C13.0201 9.72413 12.888 9.77976 12.7503 9.77976C12.6126 9.77976 12.4805 9.72413 12.3831 9.6251C12.2857 9.52607 12.231 9.39176 12.231 9.25171V5.6432C12.231 5.50315 12.2857 5.36884 12.3831 5.26981C12.4805 5.17078 12.6126 5.11515 12.7503 5.11515C12.888 5.11515 13.0201 5.17078 13.1175 5.26981C13.2149 5.36884 13.2696 5.50315 13.2696 5.6432V6.77801L14.7177 5.30459C14.7557 5.26669 14.8007 5.23683 14.8502 5.21673C14.8996 5.19662 14.9525 5.18667 15.0057 5.18744C15.1353 5.19084 15.259 5.2428 15.3532 5.33334C15.4474 5.42388 15.5054 5.54662 15.516 5.67798C15.5206 5.73671 15.5128 5.79577 15.4931 5.85118C15.4734 5.90658 15.4422 5.95706 15.4017 5.9992L14.22 7.20265L15.498 8.92408C15.5809 9.03586 15.6168 9.17655 15.5977 9.31522C15.5787 9.45389 15.5062 9.57918 15.3963 9.66354L15.3945 9.66079ZM7.0965 6.43207L7.6149 7.93021H6.5772L7.0965 6.43207Z" fill="black"/>
</svg>