<svg xmlns="http://www.w3.org/2000/svg" xmlns:xlink="http://www.w3.org/1999/xlink" width="2054" zoomAndPan="magnify" viewBox="0 0 1540.5 467.999983" height="624" preserveAspectRatio="xMidYMid meet" version="1.0"><defs><g/><clipPath id="c332f2ecb8"><path d="M 0 1.273438 L 422.863281 1.273438 L 422.863281 377.652344 L 0 377.652344 Z M 0 1.273438 " clip-rule="nonzero"/></clipPath><clipPath id="a3482e1582"><path d="M 27.503906 278 L 212.4375 278 L 212.4375 377.605469 L 27.503906 377.605469 Z M 27.503906 278 " clip-rule="nonzero"/></clipPath><clipPath id="12db6968e0"><path d="M 197 189.628906 L 343.902344 189.628906 L 343.902344 322 L 197 322 Z M 197 189.628906 " clip-rule="nonzero"/></clipPath></defs><g clip-path="url(#c332f2ecb8)"><path fill="#74cccc" d="M 50.097656 78.859375 C 22.535156 78.859375 0 101.410156 0 128.972656 L 0 327.65625 C 0 355.203125 22.535156 377.753906 50.097656 377.753906 Z M 372.742188 377.753906 C 400.296875 377.753906 422.863281 355.210938 422.863281 327.65625 L 422.863281 128.972656 C 422.863281 101.410156 400.304688 78.859375 372.742188 78.859375 Z M 153.273438 35.15625 C 153.273438 31.609375 156.261719 28.617188 159.828125 28.617188 L 263.042969 28.617188 C 266.582031 28.617188 269.601562 31.609375 269.601562 35.15625 L 269.601562 78.859375 L 153.273438 78.859375 Z M 83.160156 377.753906 L 339.695312 377.753906 L 339.695312 78.859375 L 296.707031 78.859375 L 296.707031 35.160156 C 296.707031 16.648438 281.550781 1.5 263.042969 1.5 L 159.832031 1.5 C 141.304688 1.5 126.148438 16.648438 126.148438 35.160156 L 126.148438 78.859375 L 83.160156 78.859375 Z M 83.160156 377.753906 " fill-opacity="1" fill-rule="nonzero"/></g><path fill="#ffffff" d="M 214.695312 302.632812 L 214.6875 302.589844 L 214.683594 302.59375 Z M 214.695312 302.632812 " fill-opacity="1" fill-rule="nonzero"/><path fill="#ffffff" d="M 106.554688 327.8125 L 106.558594 327.8125 C 106.546875 327.78125 106.53125 327.746094 106.515625 327.714844 L 106.511719 327.714844 C 106.523438 327.75 106.539062 327.78125 106.554688 327.8125 " fill-opacity="1" fill-rule="nonzero"/><path fill="#ffffff" d="M 47.527344 346.410156 C 47.527344 346.414062 47.535156 346.421875 47.535156 346.425781 L 47.53125 346.410156 L 47.527344 346.410156 " fill-opacity="1" fill-rule="nonzero"/><g clip-path="url(#a3482e1582)"><path fill="#ffffff" d="M -56.683594 360.003906 C -55.710938 362.375 -54.300781 364.585938 -52.597656 366.464844 C -50.882812 368.347656 -48.902344 369.886719 -46.851562 371.140625 C -42.71875 373.632812 -38.332031 375.050781 -34.019531 375.984375 C -29.691406 376.898438 -25.390625 377.328125 -21.132812 377.515625 C -16.878906 377.699219 -12.660156 377.582031 -8.480469 377.328125 C -0.121094 376.800781 8.097656 375.621094 16.199219 374.035156 C 20.242188 373.234375 24.261719 372.355469 28.25 371.363281 C 32.238281 370.386719 36.203125 369.3125 40.136719 368.167969 C 46.285156 366.394531 52.363281 364.4375 58.386719 362.34375 C 62.289062 360.988281 66.167969 359.578125 70.027344 358.121094 C 75.472656 356.070312 80.882812 353.929688 86.257812 351.742188 C 95.25 348.058594 104.167969 344.226562 113.035156 340.3125 C 116.632812 338.726562 120.222656 337.121094 123.8125 335.515625 C 126.199219 334.445312 128.578125 333.375 130.953125 332.300781 C 145.734375 325.609375 160.4375 318.757812 175.054688 311.71875 C 184.808594 307.003906 194.636719 302.222656 204.335938 297.367188 C 206.109375 296.480469 209.019531 295.003906 210.957031 294.019531 C 212.25 293.363281 212.496094 291.570312 211.375 290.652344 C 211.308594 290.597656 211.246094 290.550781 211.179688 290.511719 C 209.457031 289.460938 207.296875 289.433594 205.550781 290.4375 C 204.523438 291.023438 203.429688 291.652344 202.648438 292.105469 C 192.988281 297.699219 183.210938 303.078125 173.289062 308.199219 C 158.933594 315.621094 144.320312 322.546875 129.4375 328.832031 C 128.394531 329.277344 127.351562 329.707031 126.308594 330.136719 C 125.773438 330.363281 125.246094 330.582031 124.714844 330.796875 C 124.476562 330.894531 124.234375 330.988281 124 331.085938 C 123.640625 331.234375 123.277344 331.386719 122.917969 331.527344 C 122.5625 331.671875 122.214844 331.820312 121.859375 331.960938 C 121.59375 332.074219 121.324219 332.179688 121.058594 332.285156 C 120.417969 332.542969 119.777344 332.800781 119.140625 333.054688 C 119.132812 333.050781 119.125 333.0625 119.117188 333.0625 C 118.195312 333.425781 117.28125 333.785156 116.363281 334.148438 C 115.445312 334.507812 114.507812 334.792969 113.585938 335.144531 C 112.664062 335.5 111.742188 335.84375 110.796875 336.125 L 110.777344 336.132812 C 102.011719 339.777344 93 342.652344 84.003906 345.546875 C 77.667969 347.589844 71.273438 349.429688 64.921875 351.355469 L 64.902344 351.359375 C 60.921875 352.566406 56.945312 353.773438 52.886719 354.675781 C 52.878906 354.679688 52.878906 354.679688 52.875 354.679688 L 52.828125 354.695312 C 47.8125 356.21875 42.695312 357.402344 37.609375 358.628906 C 35.660156 359.09375 33.722656 359.582031 31.777344 360.023438 C 29.828125 360.464844 27.890625 360.917969 25.933594 361.332031 C 22.035156 362.160156 18.144531 362.972656 14.230469 363.679688 C 6.421875 365.101562 -1.40625 366.277344 -9.199219 366.882812 C -13.09375 367.183594 -16.972656 367.304688 -20.8125 367.238281 C -24.644531 367.167969 -28.433594 366.863281 -32.042969 366.183594 C -35.644531 365.503906 -39.101562 364.46875 -41.964844 362.851562 C -44.832031 361.234375 -47.011719 359.101562 -48.253906 356.394531 C -49.523438 353.703125 -49.820312 350.382812 -49.410156 346.90625 C -48.996094 343.417969 -47.886719 339.824219 -46.472656 336.304688 C -45.046875 332.773438 -43.269531 329.308594 -41.308594 325.917969 C -39.363281 322.515625 -37.199219 319.199219 -34.9375 315.929688 C -30.402344 309.398438 -25.394531 303.121094 -20.195312 296.976562 C -14.988281 290.84375 -9.558594 284.851562 -4.03125 278.925781 L -4.832031 278.0625 C -11.171875 283.148438 -17.3125 288.5 -23.203125 294.148438 C -29.09375 299.796875 -34.738281 305.75 -39.96875 312.132812 C -45.164062 318.539062 -50.023438 325.347656 -53.746094 333.089844 C -55.585938 336.964844 -57.125 341.109375 -57.917969 345.636719 C -58.3125 347.898438 -58.5 350.265625 -58.332031 352.707031 C -58.171875 355.128906 -57.644531 357.628906 -56.683594 360.003906 " fill-opacity="1" fill-rule="nonzero"/></g><path fill="#ffffff" d="M 314.320312 324.722656 C 314.324219 324.738281 314.328125 324.746094 314.324219 324.753906 C 314.335938 324.765625 314.335938 324.78125 314.339844 324.792969 L 314.449219 324.714844 C 314.40625 324.714844 314.363281 324.71875 314.320312 324.722656 " fill-opacity="1" fill-rule="nonzero"/><g clip-path="url(#12db6968e0)"><path fill="#ffffff" d="M 198.835938 271.753906 L 208.460938 277.714844 L 211.066406 279.328125 C 211.066406 279.328125 217.40625 283.257812 217.453125 283.285156 C 218.917969 284.191406 220.246094 285.347656 221.0625 286.878906 C 221.777344 288.230469 221.988281 289.746094 222.289062 291.222656 C 222.742188 293.511719 223.203125 295.800781 223.664062 298.085938 L 223.667969 298.105469 L 226.253906 311 C 226.609375 312.734375 227.972656 313.382812 229.320312 312.441406 C 230.660156 311.503906 231.804688 309.285156 231.84375 307.515625 L 232.164062 293.667969 L 232.164062 293.65625 L 232.351562 284.359375 L 245.816406 275.683594 L 246.796875 275.046875 L 246.8125 275.042969 L 285.140625 250.351562 L 285.480469 251.976562 L 285.480469 251.984375 L 285.492188 252.007812 L 285.632812 251.984375 L 288.0625 261.578125 L 288.078125 261.636719 L 300.855469 319.511719 C 301.128906 320.71875 301.765625 321.519531 302.667969 321.246094 L 302.71875 321.234375 C 303.058594 321.128906 303.445312 320.960938 303.820312 320.699219 L 309.859375 316.46875 C 311.269531 315.492188 312.394531 313.316406 312.335938 311.601562 L 311.828125 295.402344 C 312.257812 295.328125 312.558594 294.988281 312.9375 294.71875 L 315.59375 292.863281 L 316.308594 292.367188 C 317.714844 291.386719 318.355469 289.734375 317.371094 288.328125 L 316.660156 287.304688 C 316.34375 286.855469 315.898438 286.476562 315.390625 286.210938 C 314.320312 285.644531 312.976562 285.550781 312.023438 286.214844 L 311.410156 286.636719 L 311.074219 272.523438 C 311.503906 272.449219 312.058594 272.480469 312.4375 272.21875 L 313.832031 271.242188 L 315.710938 269.929688 C 317.113281 268.953125 317.476562 266.941406 316.496094 265.535156 L 315.785156 264.515625 C 315.144531 263.597656 313.949219 262.960938 312.808594 262.90625 C 312.199219 262.867188 311.601562 263.003906 311.117188 263.34375 L 310.609375 263.695312 L 310.15625 247.765625 L 310.136719 247.050781 L 309.816406 235.882812 L 309.769531 234.308594 L 329.136719 222.15625 L 329.289062 222.058594 C 333.722656 219.1875 340.84375 211.398438 342.988281 205.660156 C 343.722656 203.695312 343.875 201.972656 343.136719 200.773438 C 342.445312 199.648438 341.035156 199.089844 339.207031 198.9375 C 333.390625 198.441406 323.332031 202.09375 318.800781 205.027344 C 318.71875 205.082031 311.925781 210.175781 302.007812 217.648438 C 301.683594 217.894531 301.359375 218.140625 301.027344 218.390625 C 300.527344 218.765625 300.015625 219.152344 299.496094 219.539062 L 298.527344 219.144531 L 297.882812 218.882812 L 288.984375 215.253906 L 272.011719 208.34375 L 272.523438 207.992188 C 273.929688 207.007812 274.351562 205.089844 273.375 203.6875 L 272.660156 202.660156 C 271.679688 201.253906 269.949219 201.300781 268.542969 202.273438 L 265.269531 204.558594 C 264.890625 204.824219 264.417969 204.914062 264.195312 205.289062 L 250.769531 199.652344 L 251.375 199.234375 C 252.777344 198.25 253.273438 196.390625 252.289062 194.980469 L 251.574219 193.960938 C 250.601562 192.554688 248.492188 192.101562 247.085938 193.082031 L 243.707031 195.433594 C 243.332031 195.699219 243.039062 196.046875 242.820312 196.421875 L 227.78125 190.3125 C 226.195312 189.664062 223.664062 189.824219 222.261719 190.804688 L 216.21875 195.019531 C 214.8125 195.996094 214.917969 197.675781 216.359375 198.609375 L 264.179688 229.5625 L 273.808594 235.800781 L 276.058594 237.257812 C 275.328125 237.8125 274.59375 238.363281 273.863281 238.917969 C 253.769531 254.0625 232.996094 269.726562 225.808594 275.148438 L 217.429688 272.28125 L 207.945312 269.035156 L 204.035156 267.695312 C 202.367188 267.125 199.898438 267.425781 198.558594 268.355469 C 197.207031 269.296875 197.335938 270.824219 198.835938 271.753906 " fill-opacity="1" fill-rule="nonzero"/></g><g fill="#000000" fill-opacity="1"><g transform="translate(515.702276, 281.337242)"><g><path d="M 181.765625 -174.5625 C 181.765625 -181.289062 185.132812 -184.65625 191.875 -184.65625 L 205.09375 -184.65625 C 211.820312 -184.65625 215.1875 -181.289062 215.1875 -174.5625 L 215.1875 30.296875 C 215.1875 37.023438 211.820312 40.390625 205.09375 40.390625 L 191.875 40.390625 C 185.132812 40.390625 181.765625 37.023438 181.765625 30.296875 L 181.765625 -69.734375 L 150.03125 -69.734375 C 143.300781 -69.734375 139.9375 -73.097656 139.9375 -79.828125 L 139.9375 -91.125 C 139.9375 -97.851562 143.300781 -101.21875 150.03125 -101.21875 L 181.765625 -101.21875 Z M 25.734375 -148.828125 C 18.992188 -148.828125 15.625 -152.191406 15.625 -158.921875 L 15.625 -169.75 C 15.625 -176.476562 18.992188 -179.84375 25.734375 -179.84375 L 120.453125 -179.84375 C 127.191406 -179.84375 130.5625 -176.476562 130.5625 -169.75 L 130.5625 -80.0625 C 130.5625 -58.257812 126.753906 -40.066406 119.140625 -25.484375 C 111.523438 -10.898438 100.0625 0.753906 84.75 9.484375 C 69.445312 18.222656 50.09375 24.835938 26.6875 29.328125 C 19.3125 30.609375 15.625 27.566406 15.625 20.203125 L 15.625 5.046875 C 15.625 -1.046875 18.75 -4.648438 25 -5.765625 C 49.363281 -10.898438 67.035156 -18.71875 78.015625 -29.21875 C 88.992188 -39.71875 95.207031 -53.378906 96.65625 -70.203125 L 25.734375 -70.203125 C 18.992188 -70.203125 15.625 -73.570312 15.625 -80.3125 L 15.625 -91.125 C 15.625 -97.851562 18.992188 -101.21875 25.734375 -101.21875 L 97.140625 -101.21875 L 97.140625 -148.828125 Z M 25.734375 -148.828125 "/></g></g></g><g fill="#000000" fill-opacity="1"><g transform="translate(746.523759, 281.337242)"><g><path d="M 139.21875 -56.5 C 132.476562 -56.5 129.109375 -59.863281 129.109375 -66.59375 L 129.109375 -120.703125 L 93.765625 -120.703125 C 87.035156 -120.703125 83.671875 -124.066406 83.671875 -130.796875 L 83.671875 -139.6875 C 83.671875 -146.425781 87.035156 -149.796875 93.765625 -149.796875 L 129.109375 -149.796875 L 129.109375 -174.5625 C 129.109375 -181.289062 132.476562 -184.65625 139.21875 -184.65625 L 149.546875 -184.65625 C 156.285156 -184.65625 159.65625 -181.289062 159.65625 -174.5625 L 159.65625 -66.59375 C 159.65625 -59.863281 156.285156 -56.5 149.546875 -56.5 Z M 197.640625 -56.5 C 190.910156 -56.5 187.546875 -59.863281 187.546875 -66.59375 L 187.546875 -174.5625 C 187.546875 -181.289062 190.910156 -184.65625 197.640625 -184.65625 L 207.734375 -184.65625 C 214.472656 -184.65625 217.84375 -181.289062 217.84375 -174.5625 L 217.84375 -66.59375 C 217.84375 -59.863281 214.472656 -56.5 207.734375 -56.5 Z M 22.84375 -66.125 C 16.113281 -66.125 12.75 -69.488281 12.75 -76.21875 L 12.75 -169.75 C 12.75 -176.476562 16.113281 -179.84375 22.84375 -179.84375 L 33.65625 -179.84375 C 40.394531 -179.84375 43.765625 -176.476562 43.765625 -169.75 L 43.765625 -95.6875 L 103.625 -95.6875 C 110.363281 -95.6875 113.734375 -92.320312 113.734375 -85.59375 L 113.734375 -76.21875 C 113.734375 -69.488281 110.363281 -66.125 103.625 -66.125 Z M 194.515625 42.796875 C 187.785156 42.796875 184.421875 39.429688 184.421875 32.703125 L 184.421875 -15.140625 L 33.1875 -15.140625 C 26.445312 -15.140625 23.078125 -18.507812 23.078125 -25.25 L 23.078125 -34.859375 C 23.078125 -41.597656 26.445312 -44.96875 33.1875 -44.96875 L 207.734375 -44.96875 C 214.472656 -44.96875 217.84375 -41.597656 217.84375 -34.859375 L 217.84375 32.703125 C 217.84375 39.429688 214.472656 42.796875 207.734375 42.796875 Z M 194.515625 42.796875 "/></g></g></g><g fill="#000000" fill-opacity="1"><g transform="translate(977.345242, 281.337242)"><g><path d="M 29.09375 -35.828125 C 22.363281 -35.828125 19 -39.191406 19 -45.921875 L 19 -170.46875 C 19 -177.195312 22.363281 -180.5625 29.09375 -180.5625 L 201.484375 -180.5625 C 208.210938 -180.5625 211.578125 -177.195312 211.578125 -170.46875 L 211.578125 -161.8125 C 211.578125 -155.082031 208.210938 -151.71875 201.484375 -151.71875 L 52.421875 -151.71875 L 52.421875 -123.109375 L 199.078125 -123.109375 C 205.816406 -123.109375 209.1875 -119.738281 209.1875 -113 L 209.1875 -104.109375 C 209.1875 -97.378906 205.816406 -94.015625 199.078125 -94.015625 L 52.421875 -94.015625 L 52.421875 -64.921875 L 202.453125 -64.921875 C 209.179688 -64.921875 212.546875 -61.550781 212.546875 -54.8125 L 212.546875 -45.921875 C 212.546875 -39.191406 209.179688 -35.828125 202.453125 -35.828125 Z M 15.140625 29.578125 C 8.410156 29.578125 5.046875 26.207031 5.046875 19.46875 L 5.046875 10.578125 C 5.046875 3.847656 8.410156 0.484375 15.140625 0.484375 L 215.4375 0.484375 C 222.164062 0.484375 225.53125 3.847656 225.53125 10.578125 L 225.53125 19.46875 C 225.53125 26.207031 222.164062 29.578125 215.4375 29.578125 Z M 15.140625 29.578125 "/></g></g></g><g fill="#000000" fill-opacity="1"><g transform="translate(1208.166724, 281.337242)"><g><path d="M 191.875 -64.671875 C 185.132812 -64.671875 181.765625 -68.039062 181.765625 -74.78125 L 181.765625 -174.5625 C 181.765625 -181.289062 185.132812 -184.65625 191.875 -184.65625 L 205.09375 -184.65625 C 211.820312 -184.65625 215.1875 -181.289062 215.1875 -174.5625 L 215.1875 -74.78125 C 215.1875 -68.039062 211.820312 -64.671875 205.09375 -64.671875 Z M 25.734375 -69.25 C 18.992188 -69.25 15.625 -72.613281 15.625 -79.34375 L 15.625 -128.15625 C 15.625 -134.882812 18.992188 -138.25 25.734375 -138.25 L 112.046875 -138.25 L 112.046875 -154.359375 L 25.734375 -154.359375 C 18.992188 -154.359375 15.625 -157.722656 15.625 -164.453125 L 15.625 -169.75 C 15.625 -176.476562 18.992188 -179.84375 25.734375 -179.84375 L 134.171875 -179.84375 C 140.898438 -179.84375 144.265625 -176.476562 144.265625 -169.75 L 144.265625 -122.859375 C 144.265625 -116.128906 140.898438 -112.765625 134.171875 -112.765625 L 47.84375 -112.765625 L 47.84375 -94.734375 L 150.28125 -94.734375 C 157.007812 -94.734375 160.375 -91.367188 160.375 -84.640625 L 160.375 -79.34375 C 160.375 -72.613281 157.007812 -69.25 150.28125 -69.25 Z M 37.75 40.390625 C 31.019531 40.390625 27.65625 37.023438 27.65625 30.296875 L 27.65625 -45.203125 C 27.65625 -51.929688 31.019531 -55.296875 37.75 -55.296875 L 50.96875 -55.296875 C 57.707031 -55.296875 61.078125 -51.929688 61.078125 -45.203125 L 61.078125 -34.859375 L 181.765625 -34.859375 L 181.765625 -45.203125 C 181.765625 -51.929688 185.132812 -55.296875 191.875 -55.296875 L 205.09375 -55.296875 C 211.820312 -55.296875 215.1875 -51.929688 215.1875 -45.203125 L 215.1875 30.296875 C 215.1875 37.023438 211.820312 40.390625 205.09375 40.390625 Z M 61.078125 12.015625 L 181.765625 12.015625 L 181.765625 -6.734375 L 61.078125 -6.734375 Z M 61.078125 12.015625 "/></g></g></g></svg>