<svg xmlns="http://www.w3.org/2000/svg" xmlns:xlink="http://www.w3.org/1999/xlink" width="2079" zoomAndPan="magnify" viewBox="0 0 1559.25 467.999983" height="624" preserveAspectRatio="xMidYMid meet" version="1.0"><defs><g/><clipPath id="c1a1212017"><path d="M 18.367188 1.308594 L 441.164062 1.308594 L 441.164062 377.628906 L 18.367188 377.628906 Z M 18.367188 1.308594 " clip-rule="nonzero"/></clipPath><clipPath id="a0a5a46193"><path d="M 0 293.101562 L 184.902344 293.101562 L 184.902344 392.742188 L 0 392.742188 Z M 0 293.101562 " clip-rule="nonzero"/></clipPath><clipPath id="d4b3c81a9e"><path d="M 170 205 L 316.347656 205 L 316.347656 337 L 170 337 Z M 170 205 " clip-rule="nonzero"/></clipPath></defs><g clip-path="url(#c1a1212017)"><path fill="#74cccc" d="M 68.457031 78.882812 C 40.898438 78.882812 18.367188 101.429688 18.367188 128.988281 L 18.367188 327.640625 C 18.367188 355.183594 40.898438 377.730469 68.457031 377.730469 Z M 391.050781 377.730469 C 418.601562 377.730469 441.164062 355.191406 441.164062 327.640625 L 441.164062 128.992188 C 441.164062 101.429688 418.609375 78.882812 391.050781 78.882812 Z M 171.617188 35.1875 C 171.617188 31.640625 174.601562 28.648438 178.171875 28.648438 L 281.367188 28.648438 C 284.90625 28.648438 287.925781 31.640625 287.925781 35.1875 L 287.925781 78.882812 L 171.613281 78.882812 L 171.613281 35.1875 Z M 101.511719 377.730469 L 358.011719 377.730469 L 358.011719 78.886719 L 315.027344 78.886719 L 315.027344 35.191406 C 315.027344 16.683594 299.871094 1.535156 281.371094 1.535156 L 178.171875 1.535156 C 159.652344 1.535156 144.496094 16.683594 144.496094 35.191406 L 144.496094 78.886719 L 101.515625 78.886719 Z M 101.511719 377.730469 " fill-opacity="1" fill-rule="nonzero"/></g><path fill="#ffffff" d="M 187.164062 317.785156 L 187.152344 317.742188 Z M 187.164062 317.785156 " fill-opacity="1" fill-rule="nonzero"/><path fill="#ffffff" d="M 79.039062 342.957031 L 79.042969 342.957031 C 79.03125 342.929688 79.015625 342.890625 79 342.863281 L 78.996094 342.863281 C 79.007812 342.894531 79.023438 342.929688 79.039062 342.957031 " fill-opacity="1" fill-rule="nonzero"/><path fill="#ffffff" d="M 20.019531 361.550781 C 20.019531 361.558594 20.027344 361.566406 20.03125 361.570312 L 20.023438 361.550781 L 20.019531 361.550781 " fill-opacity="1" fill-rule="nonzero"/><g clip-path="url(#a0a5a46193)"><path fill="#ffffff" d="M -84.171875 375.144531 C -83.199219 377.515625 -81.792969 379.726562 -80.085938 381.605469 C -78.375 383.488281 -76.394531 385.027344 -74.34375 386.28125 C -70.210938 388.773438 -65.828125 390.191406 -61.511719 391.125 C -57.1875 392.039062 -52.886719 392.46875 -48.628906 392.652344 C -44.375 392.839844 -40.15625 392.71875 -35.976562 392.464844 C -27.617188 391.941406 -19.402344 390.757812 -11.300781 389.171875 C -7.261719 388.375 -3.242188 387.492188 0.746094 386.503906 C 4.734375 385.527344 8.699219 384.453125 12.632812 383.308594 C 18.777344 381.535156 24.855469 379.578125 30.878906 377.484375 C 34.78125 376.128906 38.65625 374.71875 42.519531 373.261719 C 47.960938 371.214844 53.371094 369.070312 58.746094 366.882812 C 67.734375 363.203125 76.652344 359.371094 85.519531 355.457031 C 89.117188 353.871094 92.707031 352.265625 96.292969 350.660156 C 98.679688 349.59375 101.058594 348.523438 103.433594 347.449219 C 118.214844 340.757812 132.914062 333.90625 147.527344 326.867188 C 157.28125 322.152344 167.105469 317.375 176.804688 312.519531 C 178.578125 311.632812 181.488281 310.15625 183.425781 309.171875 C 184.71875 308.515625 184.960938 306.722656 183.84375 305.804688 C 183.777344 305.75 183.714844 305.703125 183.648438 305.664062 C 181.925781 304.613281 179.765625 304.585938 178.019531 305.589844 C 176.992188 306.175781 175.898438 306.804688 175.117188 307.253906 C 165.460938 312.847656 155.683594 318.226562 145.761719 323.347656 C 131.410156 330.769531 116.800781 337.695312 101.917969 343.976562 C 100.875 344.421875 99.832031 344.851562 98.789062 345.28125 C 98.253906 345.511719 97.726562 345.730469 97.195312 345.945312 C 96.957031 346.039062 96.714844 346.136719 96.480469 346.230469 C 96.125 346.378906 95.761719 346.53125 95.398438 346.675781 C 95.046875 346.820312 94.695312 346.964844 94.339844 347.105469 C 94.074219 347.21875 93.804688 347.324219 93.539062 347.429688 C 92.902344 347.6875 92.257812 347.945312 91.625 348.199219 C 91.613281 348.199219 91.609375 348.207031 91.597656 348.207031 C 90.679688 348.570312 89.761719 348.929688 88.84375 349.296875 C 87.929688 349.652344 86.992188 349.9375 86.066406 350.289062 C 85.148438 350.644531 84.226562 350.988281 83.28125 351.273438 L 83.261719 351.277344 C 74.496094 354.921875 65.488281 357.796875 56.492188 360.6875 C 50.15625 362.730469 43.765625 364.574219 37.410156 366.496094 L 37.394531 366.503906 C 33.414062 367.710938 29.4375 368.917969 25.378906 369.820312 C 25.371094 369.824219 25.371094 369.824219 25.367188 369.824219 L 25.324219 369.835938 C 20.304688 371.359375 15.1875 372.542969 10.105469 373.769531 C 8.15625 374.234375 6.21875 374.722656 4.273438 375.164062 C 2.324219 375.605469 0.386719 376.058594 -1.566406 376.472656 C -5.46875 377.300781 -9.359375 378.113281 -13.269531 378.820312 C -21.078125 380.242188 -28.90625 381.417969 -36.695312 382.023438 C -40.59375 382.324219 -44.46875 382.445312 -48.308594 382.378906 C -52.140625 382.308594 -55.925781 382.003906 -59.535156 381.324219 C -63.140625 380.644531 -66.59375 379.609375 -69.457031 377.992188 C -72.324219 376.378906 -74.503906 374.242188 -75.746094 371.535156 C -77.015625 368.84375 -77.3125 365.523438 -76.902344 362.046875 C -76.488281 358.5625 -75.378906 354.972656 -73.964844 351.449219 C -72.539062 347.921875 -70.761719 344.457031 -68.800781 341.066406 C -66.855469 337.664062 -64.695312 334.347656 -62.433594 331.078125 C -57.898438 324.546875 -52.890625 318.269531 -47.691406 312.128906 C -42.488281 305.996094 -37.054688 300.007812 -31.527344 294.078125 L -32.332031 293.21875 C -38.667969 298.300781 -44.8125 303.652344 -50.699219 309.300781 C -56.589844 314.949219 -62.230469 320.902344 -67.464844 327.28125 C -72.65625 333.6875 -77.515625 340.492188 -81.238281 348.234375 C -83.074219 352.113281 -84.617188 356.253906 -85.410156 360.78125 C -85.800781 363.042969 -85.992188 365.410156 -85.824219 367.847656 C -85.664062 370.273438 -85.132812 372.769531 -84.171875 375.144531 " fill-opacity="1" fill-rule="nonzero"/></g><path fill="#ffffff" d="M 286.773438 339.867188 C 286.777344 339.882812 286.777344 339.894531 286.777344 339.902344 C 286.785156 339.914062 286.789062 339.925781 286.792969 339.941406 L 286.902344 339.859375 C 286.859375 339.859375 286.816406 339.863281 286.773438 339.867188 " fill-opacity="1" fill-rule="nonzero"/><g clip-path="url(#d4b3c81a9e)"><path fill="#ffffff" d="M 171.304688 286.910156 L 180.929688 292.871094 L 183.535156 294.484375 C 183.535156 294.484375 189.875 298.410156 189.921875 298.441406 C 191.386719 299.34375 192.710938 300.5 193.527344 302.03125 C 194.246094 303.382812 194.457031 304.898438 194.753906 306.375 C 195.210938 308.664062 195.667969 310.953125 196.128906 313.234375 L 196.132812 313.253906 L 198.71875 326.148438 C 199.074219 327.882812 200.4375 328.53125 201.785156 327.589844 C 203.125 326.652344 204.269531 324.433594 204.308594 322.664062 L 204.628906 308.820312 L 204.628906 308.808594 L 204.816406 299.511719 L 218.277344 290.835938 L 219.261719 290.203125 L 219.273438 290.195312 L 257.597656 265.511719 L 257.933594 267.136719 L 257.933594 267.144531 L 257.949219 267.167969 L 258.089844 267.144531 L 260.515625 276.734375 L 260.535156 276.792969 L 273.308594 334.660156 C 273.582031 335.863281 274.21875 336.667969 275.121094 336.394531 L 275.171875 336.378906 C 275.511719 336.273438 275.898438 336.109375 276.273438 335.847656 L 282.3125 331.617188 C 283.722656 330.640625 284.84375 328.464844 284.789062 326.75 L 284.28125 310.554688 C 284.710938 310.476562 285.011719 310.136719 285.386719 309.871094 L 288.046875 308.015625 L 288.757812 307.519531 C 290.167969 306.539062 290.804688 304.886719 289.824219 303.480469 L 289.109375 302.457031 C 288.796875 302.007812 288.347656 301.628906 287.84375 301.363281 C 286.773438 300.796875 285.425781 300.703125 284.476562 301.367188 L 283.863281 301.792969 L 283.527344 287.679688 C 283.957031 287.605469 284.511719 287.632812 284.886719 287.371094 L 286.285156 286.398438 L 288.164062 285.085938 C 289.566406 284.105469 289.929688 282.097656 288.949219 280.691406 L 288.238281 279.671875 C 287.59375 278.753906 286.402344 278.117188 285.261719 278.0625 C 284.652344 278.023438 284.054688 278.160156 283.570312 278.5 L 283.058594 278.851562 L 282.609375 262.925781 L 282.585938 262.210938 L 282.265625 251.042969 L 282.222656 249.46875 L 301.585938 237.316406 L 301.738281 237.222656 C 306.171875 234.351562 313.289062 226.5625 315.433594 220.828125 C 316.167969 218.863281 316.320312 217.140625 315.582031 215.941406 C 314.894531 214.816406 313.484375 214.253906 311.65625 214.101562 C 305.839844 213.605469 295.785156 217.257812 291.25 220.195312 C 291.167969 220.246094 284.375 225.339844 274.460938 232.8125 C 274.136719 233.054688 273.816406 233.304688 273.480469 233.550781 C 272.980469 233.929688 272.46875 234.316406 271.949219 234.703125 L 270.980469 234.308594 L 270.335938 234.046875 L 261.4375 230.417969 L 244.472656 223.507812 L 244.980469 223.15625 C 246.390625 222.175781 246.808594 220.253906 245.832031 218.851562 L 245.121094 217.828125 C 244.136719 216.421875 242.40625 216.464844 241 217.441406 L 237.730469 219.726562 C 237.351562 219.988281 236.875 220.078125 236.652344 220.457031 L 223.230469 214.820312 L 223.835938 214.398438 C 225.242188 213.417969 225.734375 211.558594 224.75 210.148438 L 224.035156 209.128906 C 223.0625 207.722656 220.953125 207.269531 219.546875 208.25 L 216.171875 210.601562 C 215.792969 210.867188 215.503906 211.214844 215.285156 211.585938 L 200.246094 205.480469 C 198.660156 204.835938 196.128906 204.992188 194.726562 205.972656 L 188.683594 210.1875 C 187.28125 211.164062 187.386719 212.84375 188.828125 213.777344 L 236.636719 244.726562 L 246.265625 250.960938 L 248.519531 252.421875 C 247.789062 252.972656 247.050781 253.523438 246.320312 254.078125 C 226.230469 269.222656 205.460938 284.878906 198.273438 290.300781 L 189.898438 287.4375 L 180.414062 284.191406 L 176.503906 282.851562 C 174.835938 282.277344 172.367188 282.578125 171.027344 283.511719 C 169.679688 284.453125 169.808594 285.980469 171.304688 286.910156 " fill-opacity="1" fill-rule="nonzero"/></g><g fill="#000000" fill-opacity="1"><g transform="translate(533.988456, 281.329841)"><g><path d="M 181.75 -174.53125 C 181.75 -181.257812 185.113281 -184.625 191.84375 -184.625 L 205.0625 -184.625 C 211.789062 -184.625 215.15625 -181.257812 215.15625 -174.53125 L 215.15625 30.296875 C 215.15625 37.023438 211.789062 40.390625 205.0625 40.390625 L 191.84375 40.390625 C 185.113281 40.390625 181.75 37.023438 181.75 30.296875 L 181.75 -69.71875 L 150.015625 -69.71875 C 143.285156 -69.71875 139.921875 -73.082031 139.921875 -79.8125 L 139.921875 -91.109375 C 139.921875 -97.847656 143.285156 -101.21875 150.015625 -101.21875 L 181.75 -101.21875 Z M 25.71875 -148.8125 C 18.988281 -148.8125 15.625 -152.175781 15.625 -158.90625 L 15.625 -169.734375 C 15.625 -176.460938 18.988281 -179.828125 25.71875 -179.828125 L 120.4375 -179.828125 C 127.175781 -179.828125 130.546875 -176.460938 130.546875 -169.734375 L 130.546875 -80.0625 C 130.546875 -58.257812 126.738281 -40.066406 119.125 -25.484375 C 111.507812 -10.898438 100.046875 0.753906 84.734375 9.484375 C 69.429688 18.222656 50.082031 24.835938 26.6875 29.328125 C 19.3125 30.609375 15.625 27.5625 15.625 20.1875 L 15.625 5.046875 C 15.625 -1.046875 18.75 -4.648438 25 -5.765625 C 49.363281 -10.898438 67.035156 -18.710938 78.015625 -29.203125 C 88.992188 -39.703125 95.203125 -53.367188 96.640625 -70.203125 L 25.71875 -70.203125 C 18.988281 -70.203125 15.625 -73.566406 15.625 -80.296875 L 15.625 -91.109375 C 15.625 -97.847656 18.988281 -101.21875 25.71875 -101.21875 L 97.125 -101.21875 L 97.125 -148.8125 Z M 25.71875 -148.8125 "/></g></g></g><g fill="#000000" fill-opacity="1"><g transform="translate(764.773849, 281.329841)"><g><path d="M 139.1875 -56.5 C 132.457031 -56.5 129.09375 -59.863281 129.09375 -66.59375 L 129.09375 -120.6875 L 93.765625 -120.6875 C 87.023438 -120.6875 83.65625 -124.050781 83.65625 -130.78125 L 83.65625 -139.671875 C 83.65625 -146.398438 87.023438 -149.765625 93.765625 -149.765625 L 129.09375 -149.765625 L 129.09375 -174.53125 C 129.09375 -181.257812 132.457031 -184.625 139.1875 -184.625 L 149.53125 -184.625 C 156.257812 -184.625 159.625 -181.257812 159.625 -174.53125 L 159.625 -66.59375 C 159.625 -59.863281 156.257812 -56.5 149.53125 -56.5 Z M 197.609375 -56.5 C 190.878906 -56.5 187.515625 -59.863281 187.515625 -66.59375 L 187.515625 -174.53125 C 187.515625 -181.257812 190.878906 -184.625 197.609375 -184.625 L 207.71875 -184.625 C 214.445312 -184.625 217.8125 -181.257812 217.8125 -174.53125 L 217.8125 -66.59375 C 217.8125 -59.863281 214.445312 -56.5 207.71875 -56.5 Z M 22.84375 -66.109375 C 16.101562 -66.109375 12.734375 -69.472656 12.734375 -76.203125 L 12.734375 -169.734375 C 12.734375 -176.460938 16.101562 -179.828125 22.84375 -179.828125 L 33.65625 -179.828125 C 40.382812 -179.828125 43.75 -176.460938 43.75 -169.734375 L 43.75 -95.6875 L 103.609375 -95.6875 C 110.347656 -95.6875 113.71875 -92.316406 113.71875 -85.578125 L 113.71875 -76.203125 C 113.71875 -69.472656 110.347656 -66.109375 103.609375 -66.109375 Z M 194.484375 42.796875 C 187.753906 42.796875 184.390625 39.425781 184.390625 32.6875 L 184.390625 -15.140625 L 33.171875 -15.140625 C 26.441406 -15.140625 23.078125 -18.507812 23.078125 -25.25 L 23.078125 -34.859375 C 23.078125 -41.585938 26.441406 -44.953125 33.171875 -44.953125 L 207.71875 -44.953125 C 214.445312 -44.953125 217.8125 -41.585938 217.8125 -34.859375 L 217.8125 32.6875 C 217.8125 39.425781 214.445312 42.796875 207.71875 42.796875 Z M 194.484375 42.796875 "/></g></g></g><g fill="#000000" fill-opacity="1"><g transform="translate(995.559241, 281.329841)"><g><path d="M 29.09375 -35.828125 C 22.351562 -35.828125 18.984375 -39.191406 18.984375 -45.921875 L 18.984375 -170.453125 C 18.984375 -177.179688 22.351562 -180.546875 29.09375 -180.546875 L 201.453125 -180.546875 C 208.191406 -180.546875 211.5625 -177.179688 211.5625 -170.453125 L 211.5625 -161.796875 C 211.5625 -155.066406 208.191406 -151.703125 201.453125 -151.703125 L 52.40625 -151.703125 L 52.40625 -123.09375 L 199.0625 -123.09375 C 205.789062 -123.09375 209.15625 -119.722656 209.15625 -112.984375 L 209.15625 -104.09375 C 209.15625 -97.363281 205.789062 -94 199.0625 -94 L 52.40625 -94 L 52.40625 -64.90625 L 202.421875 -64.90625 C 209.148438 -64.90625 212.515625 -61.539062 212.515625 -54.8125 L 212.515625 -45.921875 C 212.515625 -39.191406 209.148438 -35.828125 202.421875 -35.828125 Z M 15.140625 29.5625 C 8.410156 29.5625 5.046875 26.195312 5.046875 19.46875 L 5.046875 10.578125 C 5.046875 3.847656 8.410156 0.484375 15.140625 0.484375 L 215.40625 0.484375 C 222.132812 0.484375 225.5 3.847656 225.5 10.578125 L 225.5 19.46875 C 225.5 26.195312 222.132812 29.5625 215.40625 29.5625 Z M 15.140625 29.5625 "/></g></g></g><g fill="#000000" fill-opacity="1"><g transform="translate(1226.344634, 281.329841)"><g><path d="M 191.84375 -64.671875 C 185.113281 -64.671875 181.75 -68.035156 181.75 -74.765625 L 181.75 -174.53125 C 181.75 -181.257812 185.113281 -184.625 191.84375 -184.625 L 205.0625 -184.625 C 211.789062 -184.625 215.15625 -181.257812 215.15625 -174.53125 L 215.15625 -74.765625 C 215.15625 -68.035156 211.789062 -64.671875 205.0625 -64.671875 Z M 25.71875 -69.234375 C 18.988281 -69.234375 15.625 -72.597656 15.625 -79.328125 L 15.625 -128.140625 C 15.625 -134.867188 18.988281 -138.234375 25.71875 -138.234375 L 112.03125 -138.234375 L 112.03125 -154.34375 L 25.71875 -154.34375 C 18.988281 -154.34375 15.625 -157.707031 15.625 -164.4375 L 15.625 -169.734375 C 15.625 -176.460938 18.988281 -179.828125 25.71875 -179.828125 L 134.140625 -179.828125 C 140.878906 -179.828125 144.25 -176.460938 144.25 -169.734375 L 144.25 -122.84375 C 144.25 -116.113281 140.878906 -112.75 134.140625 -112.75 L 47.84375 -112.75 L 47.84375 -94.71875 L 150.25 -94.71875 C 156.976562 -94.71875 160.34375 -91.351562 160.34375 -84.625 L 160.34375 -79.328125 C 160.34375 -72.597656 156.976562 -69.234375 150.25 -69.234375 Z M 37.75 40.390625 C 31.007812 40.390625 27.640625 37.023438 27.640625 30.296875 L 27.640625 -45.203125 C 27.640625 -51.929688 31.007812 -55.296875 37.75 -55.296875 L 50.96875 -55.296875 C 57.695312 -55.296875 61.0625 -51.929688 61.0625 -45.203125 L 61.0625 -34.859375 L 181.75 -34.859375 L 181.75 -45.203125 C 181.75 -51.929688 185.113281 -55.296875 191.84375 -55.296875 L 205.0625 -55.296875 C 211.789062 -55.296875 215.15625 -51.929688 215.15625 -45.203125 L 215.15625 30.296875 C 215.15625 37.023438 211.789062 40.390625 205.0625 40.390625 Z M 61.0625 12.015625 L 181.75 12.015625 L 181.75 -6.734375 L 61.0625 -6.734375 Z M 61.0625 12.015625 "/></g></g></g></svg>