<svg xmlns="http://www.w3.org/2000/svg" xmlns:xlink="http://www.w3.org/1999/xlink" width="500" zoomAndPan="magnify" viewBox="0 0 375 374.999991" height="500" preserveAspectRatio="xMidYMid meet" version="1.0"><defs><clipPath id="125f53c703"><path d="M 11.121094 30.375 L 363.550781 30.375 L 363.550781 344.875 L 11.121094 344.875 Z M 11.121094 30.375 " clip-rule="nonzero"/></clipPath><clipPath id="75f1972914"><path d="M 12.691406 261.171875 L 170.980469 261.171875 L 170.980469 344.304688 L 12.691406 344.304688 Z M 12.691406 261.171875 " clip-rule="nonzero"/></clipPath><clipPath id="317754383d"><path d="M 158 187.5 L 280.828125 187.5 L 280.828125 298 L 158 298 Z M 158 187.5 " clip-rule="nonzero"/></clipPath></defs><g clip-path="url(#125f53c703)"><path fill="#74cccc" d="M 52.914062 95.097656 C 29.921875 95.097656 11.121094 113.910156 11.121094 136.898438 L 11.121094 302.640625 C 11.121094 325.617188 29.921875 344.429688 52.914062 344.429688 Z M 322.058594 344.425781 C 345.042969 344.425781 363.867188 325.621094 363.867188 302.636719 L 363.867188 136.902344 C 363.867188 113.910156 345.050781 95.097656 322.058594 95.097656 Z M 138.980469 58.640625 C 138.980469 55.679688 141.472656 53.183594 144.449219 53.183594 L 230.546875 53.183594 C 233.5 53.183594 236.019531 55.679688 236.019531 58.640625 L 236.019531 95.097656 L 138.980469 95.097656 Z M 80.492188 344.425781 L 294.492188 344.425781 L 294.492188 95.097656 L 258.628906 95.097656 L 258.628906 58.640625 C 258.628906 43.203125 245.984375 30.566406 230.550781 30.566406 L 144.449219 30.566406 C 128.996094 30.566406 116.355469 43.203125 116.355469 58.640625 L 116.355469 95.097656 L 80.492188 95.097656 Z M 80.492188 344.425781 " fill-opacity="1" fill-rule="nonzero"/></g><path fill="#ffffff" d="M 172.867188 281.765625 L 172.859375 281.730469 L 172.855469 281.730469 Z M 172.867188 281.765625 " fill-opacity="1" fill-rule="nonzero"/><path fill="#ffffff" d="M 82.652344 302.769531 L 82.65625 302.769531 C 82.648438 302.746094 82.632812 302.714844 82.621094 302.6875 L 82.617188 302.6875 C 82.628906 302.71875 82.640625 302.746094 82.652344 302.769531 " fill-opacity="1" fill-rule="nonzero"/><path fill="#ffffff" d="M 33.414062 318.28125 C 33.414062 318.289062 33.417969 318.292969 33.421875 318.296875 L 33.414062 318.28125 " fill-opacity="1" fill-rule="nonzero"/><g clip-path="url(#75f1972914)"><path fill="#ffffff" d="M -53.519531 329.621094 C -52.707031 331.601562 -51.535156 333.445312 -50.109375 335.015625 C -48.683594 336.582031 -47.03125 337.871094 -45.316406 338.914062 C -41.871094 340.992188 -38.214844 342.175781 -34.613281 342.953125 C -31.003906 343.71875 -27.417969 344.078125 -23.863281 344.230469 C -20.316406 344.386719 -16.796875 344.285156 -13.308594 344.074219 C -6.335938 343.636719 0.519531 342.652344 7.277344 341.328125 C 10.652344 340.660156 14.003906 339.925781 17.332031 339.097656 C 20.660156 338.285156 23.964844 337.390625 27.25 336.433594 C 32.375 334.953125 37.445312 333.320312 42.472656 331.574219 C 45.726562 330.445312 48.960938 329.265625 52.183594 328.054688 C 56.726562 326.34375 61.238281 324.558594 65.722656 322.730469 C 73.222656 319.660156 80.660156 316.460938 88.058594 313.195312 C 91.0625 311.875 94.054688 310.535156 97.046875 309.195312 C 99.039062 308.304688 101.023438 307.410156 103.007812 306.515625 C 115.339844 300.933594 127.601562 295.214844 139.796875 289.34375 C 147.933594 285.410156 156.132812 281.421875 164.222656 277.371094 C 165.703125 276.632812 168.128906 275.398438 169.746094 274.582031 C 170.824219 274.03125 171.027344 272.535156 170.09375 271.769531 C 170.039062 271.726562 169.988281 271.683594 169.929688 271.65625 C 168.496094 270.777344 166.695312 270.753906 165.234375 271.589844 C 164.378906 272.078125 163.46875 272.605469 162.816406 272.980469 C 154.757812 277.648438 146.601562 282.132812 138.324219 286.40625 C 126.347656 292.597656 114.160156 298.378906 101.742188 303.617188 C 100.875 303.992188 100.003906 304.347656 99.128906 304.707031 C 98.6875 304.898438 98.246094 305.082031 97.800781 305.257812 C 97.601562 305.339844 97.402344 305.417969 97.207031 305.5 C 96.90625 305.625 96.605469 305.75 96.304688 305.867188 C 96.007812 305.992188 95.714844 306.113281 95.421875 306.230469 C 95.199219 306.324219 94.972656 306.414062 94.75 306.5 C 94.21875 306.714844 93.683594 306.929688 93.152344 307.144531 C 93.144531 307.140625 93.140625 307.148438 93.132812 307.148438 C 92.367188 307.453125 91.601562 307.753906 90.835938 308.054688 C 90.070312 308.355469 89.289062 308.589844 88.519531 308.886719 C 87.75 309.179688 86.980469 309.46875 86.191406 309.707031 L 86.175781 309.710938 C 78.863281 312.75 71.347656 315.148438 63.839844 317.5625 C 58.554688 319.265625 53.222656 320.804688 47.921875 322.410156 L 47.90625 322.414062 C 44.585938 323.421875 41.269531 324.425781 37.882812 325.179688 C 37.878906 325.183594 37.878906 325.183594 37.875 325.183594 L 37.835938 325.195312 C 33.648438 326.464844 29.378906 327.453125 25.136719 328.476562 C 23.515625 328.863281 21.898438 329.273438 20.273438 329.640625 C 18.648438 330.007812 17.03125 330.386719 15.402344 330.730469 C 12.144531 331.421875 8.898438 332.097656 5.636719 332.691406 C -0.875 333.875 -7.40625 334.859375 -13.90625 335.363281 C -17.160156 335.613281 -20.394531 335.714844 -23.597656 335.660156 C -26.792969 335.597656 -29.953125 335.34375 -32.964844 334.777344 C -35.972656 334.210938 -38.851562 333.347656 -41.242188 332 C -43.632812 330.652344 -45.453125 328.871094 -46.488281 326.613281 C -47.550781 324.367188 -47.792969 321.597656 -47.453125 318.695312 C -47.109375 315.785156 -46.183594 312.792969 -45.003906 309.855469 C -43.816406 306.910156 -42.332031 304.019531 -40.695312 301.1875 C -39.070312 298.351562 -37.265625 295.585938 -35.382812 292.855469 C -31.597656 287.40625 -27.417969 282.171875 -23.082031 277.046875 C -18.738281 271.929688 -14.207031 266.933594 -9.597656 261.988281 L -10.265625 261.269531 C -15.554688 265.511719 -20.679688 269.976562 -25.589844 274.6875 C -30.503906 279.398438 -35.210938 284.367188 -39.578125 289.6875 C -43.910156 295.035156 -47.964844 300.710938 -51.070312 307.171875 C -52.605469 310.40625 -53.890625 313.863281 -54.550781 317.640625 C -54.878906 319.527344 -55.035156 321.5 -54.894531 323.535156 C -54.761719 325.558594 -54.324219 327.644531 -53.519531 329.621094 " fill-opacity="1" fill-rule="nonzero"/></g><path fill="#ffffff" d="M 255.972656 300.191406 C 255.976562 300.203125 255.976562 300.210938 255.976562 300.21875 C 255.984375 300.230469 255.988281 300.238281 255.988281 300.25 L 256.082031 300.183594 C 256.042969 300.183594 256.007812 300.1875 255.972656 300.191406 " fill-opacity="1" fill-rule="nonzero"/><g clip-path="url(#317754383d)"><path fill="#ffffff" d="M 159.632812 256.007812 L 167.664062 260.980469 L 169.835938 262.324219 C 169.835938 262.324219 175.128906 265.601562 175.167969 265.625 C 176.386719 266.382812 177.492188 267.34375 178.175781 268.625 C 178.773438 269.75 178.949219 271.015625 179.199219 272.246094 C 179.578125 274.15625 179.960938 276.0625 180.34375 277.96875 L 180.347656 277.988281 L 182.507812 288.746094 C 182.804688 290.191406 183.941406 290.730469 185.0625 289.949219 C 186.183594 289.164062 187.136719 287.3125 187.171875 285.839844 L 187.4375 274.285156 L 187.4375 274.277344 L 187.59375 266.519531 L 198.828125 259.28125 L 199.644531 258.753906 L 199.65625 258.746094 L 231.632812 238.152344 L 231.914062 239.507812 L 231.914062 239.515625 L 231.925781 239.53125 L 232.042969 239.515625 L 234.066406 247.515625 L 234.082031 247.5625 L 244.738281 295.84375 C 244.96875 296.851562 245.5 297.519531 246.25 297.292969 L 246.292969 297.28125 C 246.578125 297.191406 246.898438 297.054688 247.214844 296.835938 L 252.253906 293.308594 C 253.425781 292.492188 254.363281 290.675781 254.316406 289.246094 L 253.894531 275.734375 C 254.25 275.671875 254.503906 275.386719 254.816406 275.164062 L 257.035156 273.617188 L 257.628906 273.203125 C 258.804688 272.382812 259.335938 271.003906 258.519531 269.832031 L 257.921875 268.976562 C 257.660156 268.601562 257.289062 268.285156 256.867188 268.066406 C 255.972656 267.59375 254.851562 267.515625 254.054688 268.070312 L 253.546875 268.421875 L 253.265625 256.648438 C 253.625 256.585938 254.085938 256.609375 254.402344 256.390625 L 255.566406 255.578125 L 257.132812 254.484375 C 258.304688 253.667969 258.605469 251.992188 257.789062 250.820312 L 257.195312 249.964844 C 256.660156 249.203125 255.664062 248.671875 254.710938 248.625 C 254.203125 248.59375 253.707031 248.707031 253.300781 248.988281 L 252.875 249.28125 L 252.496094 235.996094 L 252.480469 235.398438 L 252.214844 226.078125 L 252.175781 224.765625 L 268.332031 214.628906 L 268.460938 214.550781 C 272.160156 212.15625 278.097656 205.65625 279.886719 200.871094 C 280.5 199.230469 280.625 197.792969 280.011719 196.792969 C 279.433594 195.855469 278.257812 195.386719 276.734375 195.261719 C 271.878906 194.847656 263.492188 197.894531 259.710938 200.34375 C 259.640625 200.386719 253.972656 204.636719 245.699219 210.871094 C 245.429688 211.074219 245.160156 211.28125 244.882812 211.488281 C 244.46875 211.800781 244.039062 212.125 243.605469 212.449219 L 242.796875 212.121094 L 242.261719 211.902344 L 234.835938 208.875 L 220.679688 203.105469 L 221.105469 202.8125 C 222.28125 201.996094 222.628906 200.394531 221.816406 199.222656 L 221.21875 198.367188 C 220.402344 197.195312 218.957031 197.230469 217.785156 198.046875 L 215.054688 199.953125 C 214.738281 200.171875 214.34375 200.246094 214.15625 200.5625 L 202.957031 195.859375 L 203.460938 195.507812 C 204.632812 194.691406 205.046875 193.136719 204.226562 191.960938 L 203.628906 191.109375 C 202.816406 189.9375 201.058594 189.558594 199.886719 190.375 L 197.066406 192.339844 C 196.753906 192.558594 196.507812 192.851562 196.328125 193.160156 L 183.78125 188.066406 C 182.457031 187.527344 180.34375 187.660156 179.175781 188.480469 L 174.132812 191.992188 C 172.960938 192.808594 173.050781 194.210938 174.253906 194.988281 L 214.144531 220.808594 L 222.175781 226.015625 L 224.054688 227.230469 C 223.445312 227.691406 222.832031 228.152344 222.222656 228.613281 C 205.460938 241.25 188.132812 254.3125 182.136719 258.835938 L 175.148438 256.445312 L 167.234375 253.738281 L 163.972656 252.621094 C 162.578125 252.140625 160.523438 252.394531 159.402344 253.171875 C 158.277344 253.957031 158.382812 255.230469 159.632812 256.007812 " fill-opacity="1" fill-rule="nonzero"/></g></svg>